<svg width="14" height="15" viewBox="0 0 14 15" fill="none" xmlns="http://www.w3.org/2000/svg">
<g clip-path="url(#clip0_38_2251)">
<path fill-rule="evenodd" clip-rule="evenodd" d="M1.39453 6.1C1.39453 3.01562 3.91278 0.5 6.99978 0.5C10.0868 0.5 12.605 3.01562 12.605 6.10087C12.605 10.9274 7.39878 14.3749 7.39878 14.3749C7.28156 14.456 7.14237 14.4995 6.99978 14.4995C6.8572 14.4995 6.71801 14.456 6.60078 14.3749C6.60078 14.3749 1.39453 10.9265 1.39453 6.1ZM6.99976 8C8.10433 8 8.99976 7.10457 8.99976 6C8.99976 4.89543 8.10433 4 6.99976 4C5.89519 4 4.99976 4.89543 4.99976 6C4.99976 7.10457 5.89519 8 6.99976 8Z" fill="#B3CFEC"/>
</g>
<defs>
<clipPath id="clip0_38_2251">
<rect width="14" height="14" fill="white" transform="translate(0 0.5)"/>
</clipPath>
</defs>
</svg>
