<svg width="18" height="18" viewBox="0 0 18 18" fill="none" xmlns="http://www.w3.org/2000/svg">
<path d="M17.9984 15.1344C17.9984 13.6101 16.856 12.3278 15.3418 12.1525L14.1436 12.0138C13.2496 11.9103 12.3574 12.221 11.7211 12.8573C10.819 13.7594 9.42056 14.0018 8.37683 13.2681C6.95837 12.2711 5.72272 11.0361 4.72491 9.61816C3.98794 8.57092 4.23128 7.16716 5.13677 6.26166C5.7758 5.62264 6.08762 4.72653 5.98331 3.82885L5.84703 2.6559C5.67112 1.14195 4.3888 0 2.86467 0C1.27282 0 -0.0718983 1.2499 0.0978827 2.83266C0.948105 10.7588 7.24018 17.0507 15.1664 17.9006C16.7488 18.0703 17.9984 16.7259 17.9984 15.1344Z" fill="#B3CFEC"/>
</svg>
