<svg width="140" height="140" viewBox="0 0 140 140" fill="none" xmlns="http://www.w3.org/2000/svg">
<path d="M78.5459 74.8502C80.4493 73.605 83.243 72.1027 85.5825 72.2643L85.6591 72.4254C85.8357 72.4801 86.0031 72.4951 86.186 72.5104C83.5312 72.9362 80.7963 74.5235 78.8579 76.3481C78.7969 75.8324 78.6411 75.3561 78.5459 74.8502Z" fill="#2081F0"/>
<path d="M34.3445 78.2753C34.9723 78.1148 35.1637 78.2403 35.1993 78.8697C35.2608 79.9643 35.5474 84.3254 34.9196 85.0399C32.9946 85.03 34.2803 78.3387 34.3445 78.2753Z" fill="#000201"/>
<path d="M72.9216 105.284C73.25 105.399 73.5628 105.534 73.8791 105.678C70.9211 113.258 65.5439 118.341 57.3914 119.728C56.5416 119.873 55.5528 119.838 54.732 120.074C54.6469 119.945 54.5564 119.87 54.4355 119.775C54.84 119.508 59.2858 118.557 60.5657 118.023C66.3202 115.62 70.5897 110.976 72.9216 105.284Z" fill="#20C84F"/>
<path d="M74.1759 93.6351C77.1908 90.5305 76.3615 87.3649 76.3563 83.3046C76.3538 81.3957 76.3897 79.4822 76.3563 77.5739C76.2097 69.1889 69.7697 64.0721 62.1559 62.3836C61.6139 62.2633 60.0881 62.3295 60.5005 61.3484C61.09 60.8174 62.6292 61.3889 63.2923 61.539C68.5078 62.7205 73.0395 65.7081 75.6164 70.4276C77.8233 74.4698 77.4995 78.1875 77.4963 82.5893C77.4938 86.1437 78.2985 92.6362 74.4794 94.6014C74.4584 94.2369 74.3717 93.9446 74.1759 93.6351Z" fill="#000201"/>
<path d="M81.6899 55.9683C81.7014 51.9775 82.8455 51.8692 80.028 50.6858C66.3955 44.96 66.4936 26.0914 80.2093 20.6778C88.1884 17.5284 97.2942 21.2936 101.023 28.9229C101.491 29.8829 101.811 30.9417 102.201 31.9381C105.404 39.8421 100.943 48.0537 93.2325 51.1517C92.404 51.4845 91.2818 51.5865 90.5564 51.9627C90.5821 53.3592 90.5209 54.757 90.5564 56.1526C92.1905 57.3177 92.1 59.2162 92.0797 61.0119C94.4884 61.6908 97.7577 62.7058 99.6025 64.467C101.263 63.154 102.73 62.055 104.655 63.5105C105.295 63.9943 108.671 67.4043 109.09 67.9864C110.394 69.8026 108.972 71.2319 107.728 72.5105C108.609 74.6539 109.632 76.4824 110.184 78.787C113.015 78.5685 115.029 78.8222 115.173 82.1229C115.392 87.1744 116.262 90.3695 110.184 90.3033C109.527 92.9461 108.622 94.7587 107.417 97.171C108.96 98.3916 110.205 100.265 108.752 102.063C108.004 102.988 104.175 106.757 103.218 107.412C101.428 108.639 99.8861 106.593 98.546 105.678C95.9899 106.706 94.6971 107.769 91.5982 108.663C91.6502 109.676 91.5583 110.691 91.5982 111.705C90.3806 113.059 87.4781 112.495 85.6531 112.501C80.5494 112.519 78.4907 113.536 78.5459 107.573C76.9794 106.973 75.4088 106.368 73.8792 105.678C73.5628 105.534 73.25 105.399 72.9216 105.284C70.5897 110.976 66.3203 115.62 60.5658 118.023C59.2858 118.557 54.84 119.508 54.4356 119.775C53.1969 119.795 51.9626 119.81 50.724 119.775C41.2034 119.275 32.428 110.756 31.1393 101.401C30.9085 99.7252 30.9648 98.0268 30.9681 96.3389C24.2351 92.8611 24.6901 89.2602 24.6802 82.2041C24.6778 80.4864 24.5766 78.7503 24.7118 77.0364C25.408 68.2142 32.7922 61.5443 41.5061 61.0119C41.1788 60.2938 40.7503 59.6138 40.3897 58.9102C37.5435 53.3603 36.6996 46.1891 40.1168 40.6938C43.765 34.8261 51.2479 32.5916 57.2137 36.4287C68.2775 43.545 63.9772 64.079 51.3061 66.8098C52.4154 68.0534 53.6317 69.1986 54.732 70.4542C55.7415 69.1885 58.41 64.9584 59.3651 64.1958C59.9218 63.7517 60.3755 64.4238 60.0911 64.9652C59.7203 65.6707 58.3895 67.2971 57.8421 68.0556C57.2936 68.8161 55.4099 72.418 54.4982 71.744C53.3446 70.8912 51.8232 68.9407 50.724 67.8506C50.0598 68.5123 47.3115 71.7727 46.6954 71.901C46.3465 71.9734 42.3713 66.4598 41.5173 65.0938C41.327 64.7891 41.2163 64.4304 41.5135 64.1449C42.2901 63.3979 46.1305 69.5557 46.7148 70.4542C47.8687 69.2344 49.0142 67.8478 50.3346 66.8098C46.8228 66.1399 44.5533 64.8244 42.4183 61.9235C40.3281 62.2639 38.3438 62.4923 36.3387 63.2505C30.7827 65.3519 26.7519 70.4641 25.9437 76.3227C25.6407 78.5187 25.8335 80.7303 25.8385 82.9375C25.8506 88.3685 25.1136 92.3443 31.2465 95.1021C33.8709 79.7043 51.4368 72.1722 64.2083 80.8815C65.2468 81.5897 66.1502 82.4472 67.1302 83.2292C67.1308 82.4059 66.9861 78.7137 67.2863 78.2136C69.1709 76.8929 68.2658 84.6588 68.0853 85.0399C68.2357 85.5513 68.9529 85.9589 69.2835 86.3669C71.2315 88.2096 72.9104 90.264 73.6665 92.8854C73.7684 93.0749 73.9429 93.5895 74.1759 93.6352C74.3717 93.9447 74.4583 94.237 74.4794 94.6015C74.5073 95.2093 74.6784 95.7622 74.8584 96.3389C75.9827 95.9966 77.75 93.4651 78.202 92.397C78.2974 92.0033 78.3991 91.6295 78.5459 91.2516C79.1319 91.6763 79.6523 92.1865 80.2525 92.5923C84.4557 95.4333 90.5203 94.7584 94.0531 91.1441C101.409 83.6189 95.6197 72.0205 85.5826 72.2644C83.2431 72.1028 80.4493 73.605 78.5459 74.8503C78.5331 74.4896 78.5432 74.1161 78.459 73.7642C77.6291 69.833 76.5176 68.5853 74.1759 65.7413C75.9647 64.3205 79.1254 63.2109 81.3462 62.79C81.0599 58.6261 81.4611 58.3114 85.2495 58.3106C87.1179 58.3103 89.0224 58.4074 90.8859 58.3161C90.5786 57.3568 89.9508 57.1012 88.9852 57.0533C87.4466 56.9768 82.9316 56.819 81.4594 57.0664C79.6471 57.3711 80.2136 60.6898 80.1852 61.9235C76.9699 62.7493 75.77 63.6626 72.8625 64.8332C70.2887 63.9541 77.7412 61.404 79.1598 61.0119C79.2 58.9362 78.9474 56.2584 81.6899 55.9683ZM34.9195 108.42C35.2419 109.095 35.7172 109.718 36.1651 110.314C41.2105 117.036 49.4465 120.211 57.7078 117.971C70.2157 114.58 76.9297 99.8947 70.4727 88.4152C70.0984 87.75 69.4421 87.1279 69.2835 86.3669C68.9529 85.9589 68.2357 85.5513 68.0853 85.0399C67.3192 84.7914 65.0253 82.4652 63.5684 81.7294C62.6781 81.6638 61.7367 80.8949 60.9202 80.5427C50.5208 76.055 38.647 82.3761 34.7976 92.8416C33.2565 97.0315 33.2106 101.307 34.1881 105.663C34.3341 106.314 34.8897 107.918 34.9195 108.42ZM90.8859 58.3161C89.0224 58.4074 87.1179 58.3103 85.2495 58.3106C81.4611 58.3114 81.0599 58.6261 81.3462 62.79C79.1254 63.2109 75.9647 64.3205 74.1759 65.7413C76.5176 68.5853 77.6291 69.833 78.459 73.7642C78.5432 74.1161 78.5331 74.4896 78.5459 74.8503C80.4493 73.605 83.2431 72.1028 85.5826 72.2644C95.6197 72.0205 101.409 83.6189 94.0531 91.1441C90.5203 94.7584 84.4557 95.4333 80.2525 92.5923C79.6523 92.1865 79.1319 91.6763 78.5459 91.2516C78.3991 91.6295 78.2974 92.0033 78.202 92.397C77.75 93.4651 75.9827 95.9966 74.8584 96.3389C74.7337 99.6962 74.5819 101.156 74.1759 104.458L74.2664 104.519C75.3719 105.248 76.8564 105.674 78.0874 106.168C79.4067 106.697 79.7433 106.646 79.6947 108.175C79.6772 109.641 79.4773 110.879 81.072 111.439C81.939 111.578 82.9666 111.444 83.8558 111.442L90.5564 111.439V107.862C91.8574 107.294 93.4133 107.025 94.8349 106.409C96.1198 105.853 97.2329 104.923 98.546 104.458C99.6184 105.047 100.773 106.506 101.919 106.741C102.65 106.891 107.998 101.614 108.234 100.222C108.156 99.4714 107.367 98.7914 106.861 98.2825L106.727 98.0823C106.518 97.7777 106.383 97.5139 106.254 97.171C106.427 96.1787 108.015 93.4618 108.509 92C109.595 88.7825 108.278 89.0316 111.681 89.0597C114.342 89.0819 113.973 87.1574 113.964 85.2234L113.957 81.2121C113.395 79.945 112.415 79.805 111.113 79.8594C110.459 79.8687 109.806 79.8832 109.152 79.8594C108.552 76.2705 107.592 75.2878 106.298 72.3645L106.254 72.2644C107.113 71.2994 109.1 70.1652 108.131 68.6886C107.773 68.1445 106.218 66.5115 105.682 66.0604C105.167 65.8914 104.792 65.4623 104.245 65.3188C102.92 64.971 102.105 66.2758 101.064 66.8098C100.717 66.5255 100.307 66.3018 99.929 66.0604C99.1675 65.1837 97.9119 64.5083 96.8698 64.0353C94.9924 63.093 92.9525 62.3173 90.8859 61.9235C90.9565 60.7338 90.8687 59.511 90.8859 58.3161ZM75.4441 46.278C75.9316 46.9851 76.7858 47.5754 77.4888 48.0482C88.8381 55.6815 103.887 45.7861 101.076 32.5796C100.304 28.9508 97.992 25.4012 94.8685 23.3699C94.3351 23.2914 93.9219 22.9822 93.4412 22.7665C88.825 20.6945 83.2876 21.2772 79.0521 24.0201C72.5377 28.2387 69.8676 37.8558 74.2303 44.4213C74.6279 45.0199 75.1643 45.6168 75.4441 46.278ZM49.6887 35.6218C32.7277 38.3324 38.1874 66.0642 51.8013 65.7413C52.8097 65.3144 53.8466 64.9316 54.7878 64.3664C61.3229 60.4439 64.2025 49.7851 61.2844 42.9568C59.3405 38.4079 54.688 35.2078 49.6887 35.6218ZM34.9195 108.42C34.8897 107.918 34.3341 106.314 34.1881 105.663C33.2106 101.307 33.2565 97.0315 34.7976 92.8416C38.647 82.3761 50.5208 76.055 60.9202 80.5427C61.7367 80.8949 62.6781 81.6638 63.5684 81.7294C62.6024 81.1538 61.6437 80.5698 60.6205 80.0997C43.1995 72.0935 24.9762 91.3798 34.9195 108.42ZM75.4441 46.278C75.1643 45.6168 74.6279 45.0199 74.2303 44.4213C69.8676 37.8558 72.5377 28.2387 79.0521 24.0201C83.2876 21.2772 88.825 20.6945 93.4412 22.7665C93.9219 22.9822 94.3351 23.2914 94.8685 23.3699C83.4905 15.7529 68.5297 25.4215 71.2649 38.7582C71.8145 41.4381 73.3657 44.4632 75.4441 46.278ZM99.929 66.0604C100.307 66.3018 100.717 66.5255 101.064 66.8098C102.105 66.2758 102.92 64.971 104.245 65.3188C104.792 65.4623 105.167 65.8914 105.682 66.0604L105.519 65.8829C102.748 62.8606 102.555 63.6136 99.9848 66.0089L99.929 66.0604ZM82.7796 51.5597C82.7733 53.1199 82.0547 55.8551 83.5509 55.9683L83.744 55.9065C83.9633 55.3799 83.8512 52.5129 83.8397 51.7793C83.4872 51.7021 83.1353 51.6198 82.7796 51.5597Z" fill="#000201"/>
<path d="M73.6664 92.8854C73.7684 93.0749 73.9429 93.5895 74.1759 93.6351C74.3716 93.9447 74.4583 94.237 74.4794 94.6015C74.5073 95.2093 74.6784 95.7622 74.8584 96.3389C74.7337 99.6962 74.5819 101.156 74.1759 104.458C73.8704 104.361 73.5778 104.244 73.282 104.121C74.07 101.273 74.4148 98.5759 74.0946 95.614C74.0167 94.8916 73.5636 93.5176 73.6664 92.8854Z" fill="url(#paint0_linear_129_3424)"/>
<path d="M102.201 31.938C105.404 39.842 100.943 48.0536 93.2326 51.1516C92.4041 51.4844 91.2819 51.5864 90.5565 51.9626C90.5822 53.3591 90.5209 54.7569 90.5565 56.1525C89.3802 56.0751 89.892 53.0356 89.8975 51.9626C89.81 51.8907 89.6834 51.836 89.5836 51.7792C88.3474 51.8954 88.9487 54.7197 88.955 55.9682C87.1547 55.9679 85.3508 55.9431 83.551 55.9682L83.7441 55.9064C83.9634 55.3798 83.8513 52.5128 83.8398 51.7792C85.9863 51.7619 87.3928 51.774 89.5836 51.5596C90.3271 51.2547 91.1157 51.0633 91.8725 50.7934C98.0052 48.6078 102.394 42.2898 102.461 35.8227C102.474 34.595 101.945 33.1233 102.201 31.938Z" fill="#2081F0"/>
<path d="M75.4442 46.2779C75.1644 45.6168 74.6279 45.0199 74.2304 44.4213C69.8677 37.8558 72.5378 28.2387 79.0522 24.02C83.2877 21.2772 88.8251 20.6944 93.4413 22.7665C93.922 22.9822 94.3351 23.2913 94.8686 23.3698C97.9921 25.4012 100.304 28.9508 101.076 32.5795C103.887 45.786 88.8382 55.6815 77.4889 48.0482C76.7859 47.5754 75.9317 46.985 75.4442 46.2779ZM79.1599 43.3494C79.8747 43.8036 80.5386 44.3302 81.2818 44.7415C89.2339 49.1433 98.5029 41.349 95.8281 32.8535C95.5667 32.0234 95.1442 31.258 94.9006 30.4205L94.8686 30.3084C94.1396 29.8441 93.7617 29.0259 93.1331 28.455C84.6524 20.7529 71.0164 30.6206 77.6265 41.3738C77.9127 41.8395 79.0907 42.9631 79.1599 43.3494ZM94.8686 30.3084L94.9006 30.4205C95.1442 31.258 95.5667 32.0234 95.8281 32.8535C98.5029 41.349 89.2339 49.1433 81.2818 44.7415C80.5386 44.3302 79.8747 43.8036 79.1599 43.3494C79.394 43.7112 79.7855 43.9592 80.1065 44.2378C86.0522 49.3992 96.684 46.3821 97.2276 37.8402C97.3774 35.484 96.4636 32.1218 94.8686 30.3084Z" fill="#2081F0"/>
<path d="M79.1598 43.3495C79.0907 42.9631 77.9127 41.8395 77.6264 41.3739C71.0163 30.6207 84.6524 20.7529 93.133 28.4551C93.7617 29.026 94.1396 29.8441 94.8685 30.3084L94.9005 30.4205C95.1442 31.2581 95.5666 32.0234 95.828 32.8536C98.5028 41.349 89.2338 49.1433 81.2817 44.7415C80.5385 44.3303 79.8746 43.8036 79.1598 43.3495ZM77.4941 37.6182C77.0751 43.752 89.2338 48.6397 93.9982 40.2927C96.2448 36.3566 95.1939 30.8996 91.2409 28.4635C90.6166 28.0788 89.924 27.819 89.288 27.4562L89.2349 27.4256C88.3416 27.4297 87.4335 27.3288 86.5446 27.3722C81.5379 27.6178 77.4314 31.6876 77.4965 36.7676C77.4998 37.0426 77.5876 37.3574 77.4941 37.6182Z" fill="#000201"/>
<path d="M77.494 37.6182C76.2941 35.3527 77.4234 32.2085 78.85 30.316C80.752 27.7927 86.5716 25.3871 89.2348 27.4255C88.3415 27.4296 87.4334 27.3287 86.5445 27.3722C81.5379 27.6177 77.4314 31.6876 77.4964 36.7675C77.4997 37.0426 77.5875 37.3573 77.494 37.6182Z" fill="#2081F0"/>
<path d="M90.8861 58.316C90.8688 59.5109 90.9566 60.7338 90.8861 61.9235C92.9527 62.3172 94.9925 63.093 96.87 64.0352C97.912 64.5083 99.1677 65.1837 99.9292 66.0603C100.307 66.3018 100.717 66.5254 101.064 66.8098C102.105 66.2758 102.92 64.9709 104.245 65.3188C104.793 65.4623 105.167 65.8913 105.682 66.0603C106.218 66.5115 107.774 68.1445 108.131 68.6886C109.1 70.1652 107.113 71.2994 106.254 72.2643L106.298 72.3644C107.592 75.2877 108.552 76.2705 109.152 79.8593C109.806 79.8831 110.46 79.8686 111.113 79.8593C112.415 79.8049 113.395 79.9449 113.958 81.212L113.964 85.2234C113.973 87.1574 114.342 89.0818 111.681 89.0597C108.278 89.0315 109.595 88.7824 108.509 92C108.016 93.4618 106.427 96.1786 106.254 97.1709C106.383 97.5138 106.518 97.7777 106.727 98.0823L106.861 98.2825C107.367 98.7913 108.156 99.4714 108.234 100.222C107.998 101.614 102.65 106.891 101.919 106.741C100.774 106.506 99.6186 105.047 98.5461 104.458C97.2331 104.923 96.1199 105.853 94.8351 106.409C93.4135 107.025 91.8576 107.294 90.5566 107.862V111.439L83.856 111.442C82.9668 111.444 81.9392 111.578 81.0721 111.439C79.4774 110.879 79.6773 109.641 79.6948 108.175C79.7435 106.646 79.4069 106.697 78.0875 106.168C76.8565 105.674 75.372 105.247 74.2665 104.519L74.176 104.458C74.5821 101.156 74.7338 99.6961 74.8585 96.3389C75.9829 95.9965 77.7501 93.465 78.2021 92.397C78.2975 92.0032 78.3993 91.6295 78.5461 91.2516C79.1321 91.6762 79.6524 92.1864 80.2526 92.5922C84.4559 95.4332 90.5205 94.7584 94.0533 91.1441C101.409 83.6188 95.6198 72.0204 85.5827 72.2643C83.2432 72.1027 80.4495 73.605 78.5461 74.8502C78.5333 74.4896 78.5434 74.1161 78.4592 73.7641C77.6293 69.8329 76.5177 68.5852 74.176 65.7412C75.9649 64.3204 79.1255 63.2108 81.3464 62.79C81.0601 58.6261 81.4612 58.3114 85.2497 58.3105C87.1181 58.3103 89.0226 58.4073 90.8861 58.316ZM96.1279 76.1007C100.075 82.2399 98.9932 89.7241 92.6341 93.7388C87.7355 96.8313 83.7712 95.4524 79.16 93.3286C79.417 93.7694 80.7984 94.5733 81.2635 94.8388C90.9984 100.394 102.198 91.19 99.2081 80.8773C98.8004 79.4705 97.4338 76.8231 96.1279 76.1007ZM111.113 79.8593C110.793 79.8949 110.504 79.885 110.184 79.8593L110.507 81.212C111.656 81.1636 112.817 81.2993 113.958 81.212C113.395 79.9449 112.415 79.8049 111.113 79.8593ZM79.6948 108.175C79.6773 109.641 79.4774 110.879 81.0721 111.439L81.1326 111.374C81.2671 109.959 81.4087 108.429 79.6948 108.175ZM90.8861 61.9235C90.8779 62.1056 90.8494 62.1715 90.9539 62.3257C91.6758 62.5045 96.6471 64.056 96.87 64.0352C94.9925 63.093 92.9527 62.3172 90.8861 61.9235ZM106.861 98.2825C106.867 98.749 107.58 100.233 108.163 100.261L108.234 100.222C108.156 99.4714 107.367 98.7913 106.861 98.2825Z" fill="#2081F0"/>
<path d="M78.4592 73.7641C83.2769 70.1769 90.3392 70.202 94.7161 74.5147C95.0618 74.8554 95.8774 75.9213 96.1279 76.1006C100.075 82.2399 98.9932 89.7241 92.6342 93.7387C87.7355 96.8313 83.7712 95.4524 79.16 93.3286C79.067 93.0494 78.4272 92.5958 78.2021 92.397C78.2976 92.0032 78.3993 91.6294 78.5461 91.2515C79.1321 91.6762 79.6525 92.1864 80.2527 92.5922C84.4559 95.4332 90.5205 94.7584 94.0533 91.1441C101.409 83.6188 95.6198 72.0204 85.5828 72.2643C83.2432 72.1027 80.4495 73.605 78.5461 74.8502C78.5333 74.4895 78.5434 74.116 78.4592 73.7641Z" fill="#000201"/>
<path d="M34.9195 108.42C34.8897 107.918 34.3341 106.314 34.1881 105.662C33.2106 101.307 33.2565 97.0314 34.7976 92.8416C38.647 82.376 50.5208 76.0549 60.9202 80.5426C61.7367 80.8948 62.6781 81.6637 63.5684 81.7293C65.0253 82.4651 67.3191 84.7913 68.0853 85.0398C68.2357 85.5512 68.9529 85.9589 69.2835 86.3668C69.4421 87.1278 70.0984 87.7499 70.4727 88.4151C76.9297 99.8946 70.2157 114.58 57.7078 117.971C49.4465 120.211 41.2105 117.036 36.165 110.314C35.7172 109.718 35.2419 109.095 34.9195 108.42ZM65.7105 88.2628C63.6031 88.8094 60.8775 92.0803 59.3504 93.5979L50.9107 101.955C50.0748 102.77 49.3193 103.673 48.4552 104.458C47.1378 103.051 43.2804 98.9975 41.9975 98.173C39.9106 96.8321 36.818 99.1705 36.7797 101.451C36.7477 103.38 39.2202 105.072 40.4285 106.411L42.9952 109.037C45.9117 112.06 48.1288 114.451 51.8606 110.72L66.4029 96.2568C67.2885 95.3848 69.3759 93.8196 69.6398 92.5618C70.0861 90.4348 67.8302 88.095 65.7105 88.2628Z" fill="#20C84F"/>
<path d="M65.7107 89.495C67.4391 89.3681 69.6824 91.3773 67.6641 93.4491C66.3563 94.7917 64.9648 96.0616 63.6249 97.373L52.4432 108.433C48.5169 112.345 47.87 112.195 44.3569 108.636L40.6854 104.885C39.6562 103.814 37.3068 102.193 38.4632 100.472C40.2857 97.7593 41.9662 99.7267 43.4409 101.238C44.9907 102.826 46.6581 104.776 48.4554 106.051C49.6397 105.331 51.7484 102.97 52.8077 101.925L62.3031 92.5714C63.2314 91.6622 64.6087 90.0377 65.7107 89.495Z" fill="#000201"/>
<path d="M65.952 90.3032C66.7013 90.4069 67.2216 91.3795 67.5607 91.9791C64.1014 96.105 58.4194 101.199 54.4701 104.997C52.9356 106.472 51.3472 108.411 49.6888 109.679C47.4849 111.364 45.7743 108.585 44.3803 107.142C43.1637 105.882 41.9275 104.643 40.6853 103.408C40.0958 102.818 39.4661 102.196 39.0332 101.479C39.416 100.812 40.2618 99.9206 41.1247 100.191C42.6839 100.679 46.5735 105.142 48.3514 106.64C49.3413 107.475 50.2753 105.753 51.0885 104.943L62.7624 93.4647C63.7952 92.4374 64.7639 91.287 65.8845 90.3582L65.952 90.3032Z" fill="#20C84F"/>
<defs>
<linearGradient id="paint0_linear_129_3424" x1="73.4795" y1="98.9796" x2="74.7722" y2="99.0834" gradientUnits="userSpaceOnUse">
<stop stop-color="#0CC177"/>
<stop offset="1" stop-color="#03AA85"/>
</linearGradient>
</defs>
</svg>
