<svg width="140" height="140" viewBox="0 0 140 140" fill="none" xmlns="http://www.w3.org/2000/svg">
<path d="M38.7036 85.6861C39.204 85.5882 39.8406 86.0232 40.3779 86.0702C42.0759 86.219 43.8273 85.9453 45.5004 86.1389C45.277 86.4984 45.0572 86.8326 44.7802 87.1536C42.5263 87.505 40.4842 87.2643 38.7036 85.6861Z" fill="#2081F0"/>
<path d="M37.6152 84.3853C38.2854 84.5307 38.8523 84.9666 39.5263 85.0817C41.463 85.4126 44.3886 85.0817 46.4478 85.1796C46.1684 85.4951 45.8624 85.9195 45.5001 86.1388C43.8269 85.9452 42.0755 86.2189 40.3775 86.0702C39.8402 86.0231 39.2036 85.5881 38.7032 85.686C38.2652 85.3062 37.9384 84.8621 37.6152 84.3853Z" fill="black"/>
<path d="M20.8759 82.8201C21.2871 83.0085 21.672 83.1747 21.9967 83.4982C21.0439 83.9707 20.1613 84.5249 19.2653 85.0945C17.7061 86.086 16.277 87.5401 14.8208 85.686C17.1526 85.7385 18.7949 83.6245 20.8759 82.8201Z" fill="#20C84F"/>
<path d="M112.794 49.1477C113.357 49.7605 113.437 50.3981 113.388 51.1936C112.858 52.085 109.669 54.7086 108.54 55.4534L108.796 56.5242C109.052 57.5595 109.737 59.2679 109.833 60.1998C110.096 61.0723 110.189 61.8667 109.833 62.7375C109.412 63.1204 109.08 63.2661 108.54 63.3982C107.349 63.0457 106.427 62.3854 105.513 61.5593C107.384 62.0884 108.763 63.3418 109.319 60.4631C109.162 59.1465 108.687 57.8017 108.333 56.5242L108.12 55.684V54.7223C109.719 52.3874 112.357 52.5482 112.794 49.1477Z" fill="#20C84F"/>
<path d="M31.2893 72.5167C33.7283 75.192 29.3315 77.099 27.7343 78.6272C28.0698 80.0144 28.3591 81.4141 28.6038 82.8201C28.7829 83.8053 29.1327 84.755 28.6038 85.686C27.7072 86.6482 26.6798 86.5419 25.7422 85.686C26.872 85.1843 28.0181 85.8703 28.1333 83.4982C27.7608 81.6156 27.2397 79.7415 26.7822 77.8761C28.8155 75.8384 31.3604 75.4868 31.2893 72.5167Z" fill="#20C84F"/>
<path d="M49.8875 49.5242C50.5692 49.9923 50.6061 50.4268 50.4997 51.1935C49.266 52.906 47.1439 54.2792 45.7449 56.0271C46.0919 57.2668 46.9418 60.019 46.941 61.2347C46.939 63.181 45.0116 63.7347 43.7231 62.4509L43.966 62.4077C47.7648 61.7061 45.2837 57.5479 44.78 55.2448C46.1499 53.7299 49.3989 51.4401 49.8875 49.5242Z" fill="#20C84F"/>
<path d="M85.9939 41.1283C86.1052 41.3208 86.2219 41.5119 86.3264 41.7083C86.4503 44.9838 79.2192 47.8663 79.5399 49.1477C79.8744 51.1506 81.7471 57.1974 81.1237 58.6964C80.4286 59.8134 79.3319 60.1574 78.1782 59.4779C79.3581 59.1393 80.1319 58.7327 80.6269 57.5058C80.8021 56.0938 79.3852 51.8604 79.0431 50.1837C78.8558 49.6142 78.7587 49.0345 78.6551 48.4458C79.1227 47.9265 79.7199 47.4956 80.2599 47.0526L83.3402 44.5711C84.9494 43.2958 85.3871 43.0574 85.9939 41.1283Z" fill="#20C84F"/>
<path d="M129.766 72.5167C130.201 73.1391 130.388 73.6455 130.523 74.3887C130.086 75.7745 127.812 77.6161 126.537 78.2761C125.206 79.5774 128.855 84.1441 127.264 85.9239C126.297 87.0045 124.759 86.2395 123.921 85.4104C124.384 85.3005 124.841 85.5802 125.322 85.4492C127.958 84.7306 125.893 80.2435 125.467 78.6272C125.363 78.3144 125.309 77.9918 125.247 77.6686C126.703 75.83 129.144 74.9249 129.766 72.5167Z" fill="#20C84F"/>
<path d="M103.569 76.673C104.271 76.7181 104.469 77.0104 104.819 77.5562C107.045 79.6986 106.662 83.3922 104.629 85.5168C103.06 87.1571 101.402 87.3693 99.2265 87.4027C94.819 87.4702 90.4027 87.4122 85.9941 87.4098C85.7696 87.2102 85.5336 87.0179 85.3408 86.7863C85.4182 86.523 85.4754 86.1736 85.602 85.9351C85.6192 85.5769 85.6036 85.2111 85.602 84.8523L94.9182 84.8529C96.4022 84.8537 97.9365 84.9508 99.4127 84.8499C102.213 84.6584 104.305 82.3599 104.038 79.4686C103.956 78.5764 103.183 77.5269 103.569 76.673Z" fill="#2081F0"/>
<path d="M103.569 76.673C104.272 76.7181 104.47 77.0104 104.819 77.5562C104.807 78.1255 105.036 78.6409 105.11 79.1965C105.588 82.7868 102.748 85.8493 99.2053 85.9359C97.566 85.9761 95.9172 85.9384 94.2771 85.9359L85.6021 85.9351C85.6193 85.5769 85.6037 85.2111 85.6021 84.8523L94.9183 84.8529C96.4023 84.8537 97.9365 84.9508 99.4128 84.8499C102.213 84.6584 104.305 82.3599 104.038 79.4686C103.956 78.5764 103.183 77.5269 103.569 76.673Z" fill="black"/>
<path d="M37.6152 84.3853C37.2051 83.8042 36.7027 83.3011 36.2929 82.7241C33.8615 79.3007 36.1829 74.3548 40.3121 73.8262C41.2358 73.7081 42.2005 73.757 43.1304 73.7568L62.4835 73.7592C61.9801 76.8209 58.974 81.9309 56.659 83.6043C55.8625 84.1802 54.9328 84.5075 54.0215 84.8523C51.2731 82.9976 49.0687 83.5415 46.4478 85.1796C44.3885 85.0817 41.463 85.4126 39.5263 85.0817C38.8522 84.9666 38.2854 84.5308 37.6152 84.3853Z" fill="#2081F0"/>
<path d="M16.396 70.665C17.007 68.9863 19.2414 62.125 22.1514 65.5517C23.078 66.6427 23.9474 69.2431 24.749 70.665C27.3901 70.8528 29.8882 69.6623 31.2893 72.5167C31.3604 75.4868 28.8155 75.8384 26.7822 77.8761C27.2397 79.7415 27.7608 81.6156 28.1333 83.4982C28.0181 85.8703 26.872 85.1842 25.7422 85.686C24.4562 85.0278 23.2765 84.1741 21.9967 83.4982C21.672 83.1747 21.2871 83.0085 20.876 82.8201C18.795 83.6245 17.1527 85.7385 14.8209 85.686C11.9428 84.6956 13.9784 79.8804 14.8209 78.0232C13.5282 77.2234 11.7604 75.7993 10.7034 74.6916C9.40389 73.3299 9.89941 71.2321 11.8163 70.7828C12.8549 70.5395 15.2705 70.6043 16.396 70.665ZM21.6267 66.5793C19.8884 66.6627 18.951 71.1438 17.8376 72.7598C15.4109 72.8276 12.8421 71.9436 11.3527 73.9413C12.1223 74.6104 15.5033 77.2075 15.8311 77.8761C15.3931 79.3332 13.4321 83.9721 15.139 84.5914C16.4576 84.4238 19.4551 82.1584 20.876 81.4452C21.6827 82.0042 25.3572 84.3431 26.1202 84.4801C28.0403 84.8249 25.8367 78.9572 25.7422 77.5561C26.5877 76.1479 31.2958 74.0747 29.9429 72.2739C29.2697 71.2318 25.3752 71.7754 24.1473 71.7081C23.6663 71.6018 21.9758 67.3072 21.6267 66.5793ZM16.9902 71.7081C15.685 71.7407 9.43788 70.7798 11.3527 73.9413C12.8421 71.9436 15.4109 72.8276 17.8376 72.7598C18.951 71.1438 19.8884 66.6627 21.6267 66.5793C19.6146 63.4495 17.5806 70.56 16.9902 71.7081Z" fill="black"/>
<path d="M21.6265 66.5793C21.9757 67.3072 23.6661 71.6018 24.1471 71.7082C25.3751 71.7755 29.2695 71.2319 29.9427 72.274C31.2957 74.0748 26.5875 76.148 25.742 77.5562C25.8366 78.9573 28.0401 84.825 26.1201 84.4802C25.3571 84.3432 21.6825 82.0042 20.8758 81.4453C19.4549 82.1584 16.4575 84.4239 15.1388 84.5915C13.432 83.9722 15.3929 79.3333 15.831 77.8761C15.5032 77.2076 12.1221 74.6105 11.3525 73.9414C12.8419 71.9436 15.4107 72.8277 17.8374 72.7598C18.9508 71.1438 19.8882 66.6627 21.6265 66.5793ZM15.1388 84.5915C13.432 83.9722 15.3929 79.3333 15.831 77.8761C18.1522 78.096 15.4036 83.0422 15.1388 84.5915ZM24.1471 71.7082C24.2436 72.1222 24.4746 72.4427 24.7488 72.7598C26.0429 72.8115 28.8525 72.9154 29.9427 72.274C29.2695 71.2319 25.3751 71.7755 24.1471 71.7082Z" fill="#20C84F"/>
<path d="M74.3722 73.9414L95.2388 73.9378C98.2772 73.934 101.908 73.4511 103.569 76.673C103.183 77.5269 103.956 78.5764 104.038 79.4686C104.305 82.36 102.213 84.6585 99.4128 84.8499C97.9365 84.9508 96.4022 84.8537 94.9183 84.8529L85.602 84.8523C85.0428 80.5156 82.0107 80.4563 78.3231 80.4563L73.3799 80.4596C74.2902 77.8947 74.4408 76.6593 74.3722 73.9414Z" fill="#2081F0"/>
<path d="M115.466 69.9855C115.791 68.9303 116.875 66.031 117.458 65.1782C118.317 63.9223 119.966 63.8192 120.835 65.0751C121.669 66.2828 122.496 69.1567 123.156 70.665C125.778 70.6655 128.844 69.6902 129.766 72.5167C129.144 74.9248 126.703 75.8299 125.247 77.6685C125.309 77.9917 125.363 78.3144 125.467 78.6272C125.893 80.2435 127.958 84.7306 125.322 85.4492C124.841 85.5801 124.384 85.3004 123.921 85.4103C122.911 84.9857 121.661 84.126 120.742 83.4982C120.595 83.4419 120.445 83.3888 120.3 83.3265C119.184 83.8892 118.126 84.5682 117.078 85.2476C115.411 86.328 114.353 87.4365 112.794 85.686C109.892 83.5589 111.949 81.0293 112.794 77.876C111.044 76.7158 106.916 74.6566 108.498 72.0636C109.42 70.5509 113.541 70.4664 115.466 69.9855ZM120.3 66.11C118.27 66.5093 118.158 70.3814 116.892 71.9734C114.541 72.9266 110.993 72.0956 109.833 74.3886C110.535 74.8904 113.857 77.0853 113.997 77.6685C113.491 79.0712 111.568 83.3924 112.794 84.3852C113.999 85.1221 117.625 81.7818 119.157 81.201C120.475 81.8261 121.765 82.7244 123.019 83.4799C128.184 86.5938 124.055 79.7179 124.147 77.6135C124.211 76.1471 127.9 74.3979 128.521 72.7598C126.99 72.7816 125.453 72.774 123.921 72.7598C123.587 72.4508 123.377 72.0997 123.156 71.7081C121.52 70.771 120.923 67.8114 120.3 66.11ZM109.833 74.3886C110.993 72.0956 114.541 72.9266 116.892 71.9734C118.158 70.3814 118.27 66.5093 120.3 66.11C118.524 62.3109 116.74 70.3439 115.922 70.902C115.158 71.424 110.949 71.4418 109.638 72.1951C108.889 72.6261 109.057 74.0427 109.833 74.3886ZM123.156 71.7081C123.377 72.0997 123.587 72.4508 123.921 72.7598C125.453 72.774 126.99 72.7816 128.521 72.7598C128.764 70.989 124.408 71.7024 123.156 71.7081Z" fill="black"/>
<path d="M119.157 82.3667C119.583 82.6617 120.531 83.0785 120.742 83.4982C120.595 83.4419 120.445 83.3888 120.3 83.3265C119.184 83.8892 118.126 84.5681 117.078 85.2476C115.412 86.328 114.353 87.4365 112.794 85.686C113.247 85.5741 113.721 85.6624 114.179 85.5082C115.272 85.1402 117.978 83.1091 119.157 82.3667Z" fill="#20C84F"/>
<path d="M120.3 66.1101C120.923 67.8114 121.52 70.7711 123.156 71.7082C123.378 72.0998 123.587 72.4508 123.922 72.7598C125.453 72.774 126.99 72.7817 128.521 72.7598C127.901 74.398 124.211 76.1472 124.147 77.6136C124.055 79.718 128.184 86.5939 123.019 83.4799C121.765 82.7244 120.475 81.8262 119.157 81.2011C117.625 81.7819 113.999 85.1222 112.795 84.3853C111.568 83.3925 113.491 79.0713 113.998 77.6686C113.857 77.0853 110.535 74.8905 109.833 74.3887C110.993 72.0956 114.541 72.9266 116.892 71.9734C118.158 70.3815 118.27 66.5093 120.3 66.1101ZM113.998 77.6686C113.491 79.0713 111.568 83.3925 112.795 84.3853C113.705 83.41 115.097 79.1758 114.863 78.1433C114.647 77.8589 114.322 77.7897 113.998 77.6686Z" fill="#20C84F"/>
<path d="M97.4689 46.8872C97.8616 45.8648 99.0114 42.7689 99.5424 41.9615C100.406 40.6492 102.209 40.3457 103.242 41.7074C103.902 42.5781 105.021 45.7084 105.513 46.8872C108.358 46.8894 111.314 46.6569 112.795 49.1477C112.358 52.5482 109.719 52.3874 108.12 54.7223V55.6839L108.333 56.5242C108.687 57.8017 109.163 59.1465 109.319 60.4631C108.763 63.3418 107.385 62.0884 105.513 61.5593C104.75 61.2927 103.977 60.8068 103.234 60.4631C100.669 59.9717 97.481 64.6833 95.1967 62.7375C93.1106 61.2755 93.5189 60.5648 94.1368 58.2206L94.9634 55.0479C94.1349 54.4089 91.1189 51.654 90.6259 50.9338C89.8291 49.77 90.4566 47.9733 91.7902 47.5262C92.8388 47.1748 96.2273 46.9542 97.4689 46.8872ZM102.672 42.6462C100.403 43.6978 100.37 46.6219 99.1793 48.6046C97.6579 49.3257 92.8323 48.9951 92.4453 50.0473C92.3196 50.3891 92.3204 50.8301 92.2889 51.1935C93.0759 51.9594 94.0832 53.1123 94.9634 53.7056C95.3156 54.0313 95.8581 54.3944 95.8866 54.9142C95.9828 56.6872 93.4087 60.923 95.5295 61.5593C97.2598 61.1691 100.27 59.2198 101.875 58.2556C102.513 58.7828 106.887 61.2355 107.567 61.1688C109.203 61.008 106.967 55.7816 106.726 54.4783C107.716 53.1743 112.103 50.6144 111.598 49.5242C109.517 48.8565 106.533 49.9817 105.174 47.9158C104.263 47.7113 102.814 43.4782 102.672 42.6462ZM92.2889 51.1935C92.3204 50.8301 92.3196 50.3891 92.4453 50.0473C92.8323 48.9951 97.6579 49.3257 99.1793 48.6046C100.37 46.6219 100.403 43.6978 102.672 42.6462C100.794 38.9009 98.6945 47.3695 97.9455 47.783C96.8291 48.3993 88.18 47.4663 92.2889 51.1935ZM105.174 47.9158C106.533 49.9817 109.517 48.8565 111.598 49.5242C111.492 49.1966 111.362 48.9092 111.205 48.6046C110.134 48.0813 106.462 47.9142 105.174 47.9158Z" fill="black"/>
<path d="M101.875 59.4778C102.332 59.7988 102.799 60.1113 103.234 60.463C100.669 59.9716 97.4806 64.6832 95.1963 62.7374C96.7557 62.4974 100.531 60.4198 101.875 59.4778Z" fill="#20C84F"/>
<path d="M102.672 42.6461C102.814 43.4782 104.263 47.7113 105.174 47.9158C106.532 49.9816 109.516 48.8564 111.598 49.5242C112.103 50.6144 107.716 53.1743 106.726 54.4783C106.967 55.7815 109.202 61.008 107.567 61.1688C106.887 61.2355 102.513 58.7828 101.875 58.2556C100.27 59.2197 97.2594 61.169 95.5291 61.5592C93.4083 60.923 95.9824 56.6871 95.8862 54.9142C95.8578 54.3944 95.3153 54.0312 94.9631 53.7056C94.0829 53.1122 93.0755 51.9594 92.2886 51.1935C92.32 50.8301 92.3192 50.389 92.445 50.0473C92.8319 48.9951 97.6575 49.3256 99.1789 48.6046C100.369 46.6219 100.403 43.6978 102.672 42.6461ZM94.9631 53.7056C95.3153 54.0312 95.8578 54.3944 95.8862 54.9142C95.9824 56.6871 93.4083 60.923 95.5291 61.5592C95.5868 60.4094 96.6874 57.0664 97.0319 55.6839C96.6201 54.8231 95.861 54.0671 94.9631 53.7056Z" fill="#20C84F"/>
<path d="M34.0841 47.0701C35.0564 45.0281 36.4703 39.8861 38.9575 40.7026C40.4322 41.1868 41.8937 45.4844 42.6476 47.0701C43.6981 47.0187 44.761 47.0597 45.8123 47.0687C48.0944 47.0884 49.4991 46.8746 49.8874 49.5242C49.3987 51.4402 46.1498 53.7299 44.7798 55.2448C45.2835 57.5479 47.7647 61.7061 43.9658 62.4078L43.723 62.451C42.3372 61.7086 40.9903 60.8853 39.575 60.1997C37.8548 61.049 34.1237 64.4025 32.2616 62.451C31.3505 61.5453 30.3188 61.0635 30.5556 59.5823C30.7388 58.435 31.8233 56.2951 32.2616 55.0479C31.0298 54.2085 27.4491 51.2977 27.4502 49.6516C27.4527 46.3157 31.8867 47.0154 34.0841 47.0701ZM39.575 42.6462C37.8898 42.7254 36.5948 47.4379 35.8239 49.0708C33.3573 49.4679 30.1507 48.2552 29.2177 50.8534C30.1351 51.9627 32.9805 54.0255 33.4385 55.0479C32.8164 56.5466 30.5518 59.9301 32.2616 60.9594C32.5468 61.063 32.8388 61.1385 33.1314 61.218C34.3004 60.894 37.0987 58.9657 38.5537 58.2556C39.552 58.823 43.221 61.2249 44.1165 61.2621C46.0669 61.3433 43.7654 56.1488 43.7268 55.1535L43.723 55.0479C44.843 52.9616 48.1844 51.4413 48.8718 49.1477C48.1546 47.3938 44.3875 48.0241 42.6476 48.0569C41.273 47.9719 39.7688 43.6379 39.575 42.6462ZM34.7759 47.9158C33.8787 48.0638 25.7392 47.463 29.2177 50.8534C30.1507 48.2552 33.3573 49.4679 35.8239 49.0708C36.5948 47.4379 37.8898 42.7254 39.575 42.6462C37.5244 38.978 35.8078 46.4628 34.7759 47.9158Z" fill="black"/>
<path d="M38.5538 59.4778C38.9306 59.6826 39.2511 59.9216 39.5751 60.1997C37.8549 61.049 34.1238 64.4024 32.2617 62.4509C34.4008 62.1575 36.6025 60.4684 38.5538 59.4778Z" fill="#20C84F"/>
<path d="M39.575 42.6461C39.7689 43.6379 41.2731 47.9719 42.6477 48.0569C44.3875 48.0241 48.1547 47.3938 48.8719 49.1476C48.1845 51.4412 44.8431 52.9615 43.7231 55.0479L43.7269 55.1534C43.7655 56.1487 46.067 61.3432 44.1166 61.262C43.2211 61.2248 39.5521 58.823 38.5537 58.2556C37.0988 58.9657 34.3004 60.894 33.1315 61.218C32.8389 61.1384 32.5469 61.063 32.2617 60.9593C30.5519 59.9301 32.8165 56.5466 33.4386 55.0479C32.9805 54.0255 30.1352 51.9627 29.2178 50.8533C30.1507 48.2551 33.3573 49.4678 35.824 49.0708C36.5948 47.4378 37.8898 42.7254 39.575 42.6461ZM33.4386 55.0479C32.8165 56.5466 30.5519 59.9301 32.2617 60.9593C32.7913 60.2539 34.1503 56.9455 34.523 56.0271C34.1982 55.6686 33.8096 55.358 33.4386 55.0479ZM42.6477 48.0569C43.1382 49.9691 46.9786 49.1578 48.8719 49.1476C48.1547 47.3938 44.3875 48.0241 42.6477 48.0569Z" fill="#20C84F"/>
<path d="M54.3475 87.1535C52.8961 85.8651 55.865 85.9417 56.9727 85.2277C59.3787 83.677 61.8142 79.7841 63.0392 77.3423C63.9697 75.4876 64.2254 73.39 64.197 71.3363C64.1754 69.79 63.5199 67.8871 65.0782 66.9041C67.4233 65.4248 70.2227 68.163 71.3296 70.0317C74.8501 75.9759 70.5645 79.2143 71.8436 82.0649L77.9823 82.0586C79.1764 82.0569 80.5266 81.9259 81.6926 82.1775C83.792 82.6303 84.8595 85.5922 83.296 87.1535C86.0572 88.7425 85.8997 91.9679 83.0182 93.4418C84.5369 95.8797 83.7989 98.1826 80.9879 99.1375C81.9709 104.486 78.2951 105.952 73.5444 105.94L55.5038 105.931C53.8884 108.342 50.6293 110.705 47.7489 108.784C47.4224 108.566 46.9417 108.068 47.3092 107.679C47.8448 107.114 48.6884 107.985 49.2006 108.218C51.6929 109.35 55.38 105.347 55.5897 103.079C55.7789 101.034 54.1793 100.732 54.047 99.6272C53.9521 98.8359 54.2706 97.8991 54.3226 97.0949C54.5033 94.3094 54.9143 86.6151 50.7066 86.3349C48.8486 86.211 46.3978 89.4767 46.3945 87.748C46.3915 86.2988 51.4384 83.364 54.062 87.1352C55.876 89.743 55.6714 96.3025 55.1929 99.4385C55.6113 99.9816 56.0578 100.518 56.4144 101.104C60.7071 101.135 68.2676 101.881 71.8084 98.945C74.4889 96.7222 77.5388 89.735 79.723 86.5295C79.8433 86.3247 79.991 86.1306 80.1258 85.9351C80.6675 85.1356 81.0727 84.1813 81.5313 83.3265C79.113 82.5231 71.5582 84.0866 70.7053 82.3585C69.7363 80.3955 71.0389 78.7035 71.4835 76.872C72.2437 73.7395 70.5571 69.0954 67.4019 67.8497C64.5716 66.7318 65.3003 69.8067 65.2921 71.324C65.2822 73.1675 65.1874 75.1603 64.4972 76.8887C63.0666 80.4729 58.9043 87.2325 54.3475 87.1535Z" fill="black"/>
<path d="M82.0756 94.2468C84.3774 97.0835 80.7497 98.4474 77.9577 97.9721L77.8721 97.9571C78.4734 97.9257 78.4282 97.6812 78.6552 97.1819C80.4164 96.6862 81.8812 96.393 82.0756 94.2468Z" fill="#9EC9F8"/>
<path d="M83.6764 88.8699C84.3699 89.7687 84.3485 91.2305 83.3828 91.94C81.9393 93.0004 80.0236 91.7743 79.5402 93.1626C79.203 93.0127 79.0794 92.6403 79.1582 92.2887C79.4557 90.9576 83.0552 92.1457 83.6764 88.8699Z" fill="#9EC9F8"/>
<path d="M81.5314 83.3265C82.3189 83.5918 82.7154 84.1206 83.0183 84.8523C83.052 86.2343 82.2106 86.8115 80.9881 87.1536C80.7215 86.7574 80.159 86.639 79.7231 86.5296C79.8435 86.3248 79.9911 86.1306 80.1259 85.9351C80.6676 85.1356 81.0728 84.1813 81.5314 83.3265Z" fill="#EFF6FE"/>
<path d="M83.0183 84.8523C83.052 86.2342 82.2106 86.8115 80.9881 87.1535C80.7215 86.7573 80.159 86.6389 79.7231 86.5296C79.8435 86.3248 79.9911 86.1306 80.1259 85.9351C80.7792 85.913 81.422 85.9094 82.0755 85.9351C82.5538 85.5373 82.8885 85.5233 83.0183 84.8523Z" fill="#9EC9F8"/>
<path d="M79.0431 99.1375C80.2794 99.4839 80.3863 100.667 80.0015 101.784C78.9346 104.88 75.7247 104.838 73.0524 104.833L56.4146 104.826C56.5135 104.289 56.6202 103.753 56.708 103.214C56.8974 103.861 60.6774 103.38 61.4726 103.368C65.7035 103.299 69.9615 103.477 74.1803 103.054C77.076 102.764 78.0995 101.993 79.0431 99.1375Z" fill="#9EC9F8"/>
<path d="M56.4146 101.104C60.7072 101.135 68.2678 101.881 71.8085 98.945C74.489 96.7222 77.539 89.735 79.7232 86.5295C80.159 86.6389 80.7215 86.7573 80.9881 87.1535C80.3327 88.6129 82.6413 87.7729 83.6763 88.8699C83.055 92.1457 79.4555 90.9576 79.158 92.2887C79.0792 92.6403 79.2028 93.0128 79.54 93.1626C80.2862 93.9567 81.4584 93.3329 82.0756 94.2468C81.8812 96.393 80.4164 96.6861 78.6551 97.1818C78.4282 97.6811 78.4733 97.9256 77.872 97.957C77.7268 98.041 77.5991 98.1269 77.4356 98.1701C77.3579 98.5162 77.3588 98.7908 77.4356 99.1375C77.9743 99.1744 78.5039 99.158 79.0431 99.1375C78.0995 101.993 77.076 102.764 74.1803 103.054C69.9615 103.477 65.7035 103.299 61.4726 103.368C60.6774 103.38 56.8974 103.861 56.708 103.214C56.7306 102.465 56.6046 101.826 56.4146 101.104Z" fill="#EFF6FE"/>
<path d="M64.1875 37.9871C65.179 36.0137 66.8253 31.873 67.9606 30.2521C68.8488 28.9841 70.9389 28.8849 71.8659 30.1771C72.8847 31.5968 74.9459 36.3579 75.6295 37.9871C77.2143 38.1243 83.2764 38.1309 84.2726 38.64C85.2914 39.1607 85.6326 40.1243 85.9938 41.1283C85.3871 43.0574 84.9493 43.2959 83.3401 44.5712L80.2599 47.0526C79.7198 47.4956 79.1226 47.9265 78.6551 48.4458C78.7587 49.0345 78.8558 49.6142 79.0431 50.1837C79.3851 51.8605 80.8021 56.0938 80.6268 57.5059C80.1319 58.7328 79.3581 59.1394 78.1782 59.4779C77.0787 59.3844 71.9717 55.8535 70.7333 55.0479C69.4845 56.1573 67.7599 56.9376 66.3293 57.8001C65.0124 58.5939 62.8386 60.6094 61.2357 59.4779C60.9795 59.3051 60.6363 59.202 60.3604 59.0505C58.0267 57.7681 59.4816 54.8852 59.9703 52.9069C60.2997 51.5731 60.4821 49.5885 61.2357 48.4458C59.4051 47.1885 54.1088 43.5045 54.2119 41.268C54.2669 40.0748 55.0519 38.9239 56.2367 38.6173C57.2337 38.3595 63.135 37.9089 64.1875 37.9871ZM56.9917 43.6617C58.0116 44.6625 62.1515 47.4551 62.1848 48.6046C62.6396 49.0164 62.9781 49.3872 63.2764 49.9278C62.7793 51.461 61.2658 56.8515 61.2357 58.2556C63.0861 58.0415 67.7288 54.0234 69.9319 53.2914L70.0568 53.3362C72.1658 54.0827 75.1674 56.9355 77.5876 58.0377C78.6094 58.5034 79.1576 58.0002 79.5399 57.0323C78.926 54.0783 77.8572 50.9819 77.4355 48.0569C79.2336 45.6898 84.5162 43.5193 84.6745 40.8844C84.1974 38.829 82.0274 39.3127 80.3534 39.2487L75.6295 39.0401C74.5907 38.8735 74.3656 37.7224 73.9705 36.89L72.2845 33.3173C71.9383 32.5826 71.6212 31.8118 71.193 31.121C69.6606 31.3628 69.2083 33.1598 68.6451 34.3908L67.011 37.9209C65.8191 40.4346 65.6307 40.2468 63.0973 40.4135L59.4343 40.6575C56.4262 40.8614 56.0079 40.9566 56.9917 43.6617ZM69.9319 30.2893C67.7567 30.9622 66.6033 36.2283 65.0723 38.5255C64.3857 39.5555 58.2886 39.0034 56.4167 39.663C54.1274 40.4696 55.5737 42.6719 56.9917 43.6617C56.0079 40.9566 56.4262 40.8614 59.4343 40.6575L63.0973 40.4135C65.6307 40.2468 65.8191 40.4346 67.011 37.9209L68.6451 34.3908C69.2083 33.1598 69.6606 31.3628 71.193 31.121C70.8815 30.5898 70.5028 30.4044 69.9319 30.2893ZM62.1848 48.6046C61.5718 50.2896 60.341 54.8948 60.1436 56.7914C60.0463 57.7254 60.2965 58.05 61.2357 58.2556C61.2658 56.8515 62.7793 51.461 63.2764 49.9278C62.9781 49.3872 62.6396 49.0164 62.1848 48.6046Z" fill="black"/>
<path d="M61.2358 59.4778C63.7591 58.8284 67.3901 55.756 69.932 54.4783C70.2297 54.6453 70.501 54.7908 70.7334 55.0478C69.4846 56.1572 67.7601 56.9376 66.3294 57.8C65.0126 58.5938 62.8387 60.6093 61.2358 59.4778Z" fill="#20C84F"/>
<path d="M56.9919 43.6616C56.0081 40.9565 56.4265 40.8614 59.4345 40.6574L63.0975 40.4135C65.6309 40.2467 65.8193 40.4345 67.0112 37.9208L68.6453 34.3907C69.2086 33.1597 69.6608 31.3627 71.1932 31.121C71.6214 31.8117 71.9386 32.5825 72.2847 33.3172L73.9708 36.89C74.3659 37.7223 74.5909 38.8735 75.6297 39.04L80.3536 39.2486C82.0276 39.3126 84.1976 38.8289 84.6747 40.8843C84.5164 43.5192 79.2339 45.6897 77.4358 48.0569C77.8574 50.9818 78.9263 54.0782 79.5401 57.0322C79.1579 58.0001 78.6096 58.5033 77.5878 58.0376C75.1676 56.9354 72.1661 54.0826 70.0571 53.3361L69.9321 53.2913C67.729 54.0233 63.0863 58.0414 61.236 58.2555C61.266 56.8514 62.7795 51.4609 63.2766 49.9277C62.9783 49.3871 62.6398 49.0164 62.1851 48.6046C62.1517 47.455 58.0119 44.6624 56.9919 43.6616ZM75.6297 39.04C75.4725 39.4625 76.0494 40.0334 76.3095 40.3074C78.7247 40.7326 82.5217 40.0205 84.6747 40.8843C84.1976 38.8289 82.0276 39.3126 80.3536 39.2486L75.6297 39.04Z" fill="#20C84F"/>
</svg>
