<svg width="140" height="140" viewBox="0 0 140 140" fill="none" xmlns="http://www.w3.org/2000/svg">
<path d="M42.502 114.572C42.9816 114.559 43.4639 114.571 43.9435 114.572C43.9542 117.804 45.0539 119.263 42.1602 119.337C42.7628 118.153 42.508 115.908 42.502 114.572Z" fill="#20C84F"/>
<path d="M61.0405 70.4378C63.4563 68.6364 66.0546 67.022 68.5581 65.3428C69.6183 64.6316 71.5258 63.8203 72.036 62.583C72.3814 63.0711 72.6354 63.4785 72.0505 63.8876C69.6399 65.5733 67.1212 67.1718 64.6401 68.7507C63.5955 69.4151 62.3839 70.7186 61.0405 70.4378Z" fill="#2081F0"/>
<path d="M93.6318 52.9459C94.6167 53.4972 94.2049 56.0648 94.1371 57.2115L83.9056 57.2159C82.8039 57.2162 79.3031 57.5873 78.5273 56.9151C79.4081 56.3716 83.0057 56.666 84.138 56.6666L93.2829 56.6693C93.3064 55.5799 92.8735 53.8305 93.6318 52.9459Z" fill="#0F1E9E"/>
<path d="M76.2976 76.9825C77.7813 77.0143 77.3643 78.6874 77.3648 79.741L77.3616 83.4335C77.9642 83.428 81.651 82.9867 81.4008 84.1969C81.3272 84.5538 81.2247 84.7345 80.9266 84.9371C78.9639 84.9366 75.9465 85.7891 75.7548 83.6982C75.6304 82.343 75.1497 77.6992 76.2976 76.9825Z" fill="#2081F0"/>
<path d="M45.3634 30.2799C47.3354 30.3958 44.4053 32.3069 44.2335 32.4346L39.4746 35.9212C38.5573 36.5832 34.0543 39.1767 37.2754 40.1368C38.3623 39.6367 40.007 38.0589 40.9452 37.8913C41.8864 38.0721 41.3649 38.8492 40.9709 39.2618C39.5449 39.8046 38.2723 41.7654 36.5737 41.1548C34.9801 40.5819 34.2974 38.4423 35.614 37.2712C36.7815 36.2324 38.21 35.3776 39.4787 34.4542L42.988 31.8902C43.7403 31.3403 44.5144 30.6627 45.3634 30.2799Z" fill="black"/>
<path d="M55.7708 76.9825C57.5143 76.7413 59.6402 77.484 59.2703 79.6772C58.9938 81.3151 57.0327 82.5341 55.7708 83.4334C56.8277 83.5682 58.5194 83.3806 59.3269 83.7101C59.6405 83.8381 60.0023 84.3215 59.7081 84.6322C59.229 85.1386 56.5457 84.9442 55.7708 84.9371C48.5097 85.2411 61.0055 79.9255 56.7891 78.269C55.8367 77.8947 55.2997 78.8924 54.5332 79.1763C53.492 79.5618 52.8541 77.5165 55.7708 76.9825Z" fill="#2081F0"/>
<path d="M67.655 25.479C63.4714 19.8558 54.0914 20.7096 51.4552 27.2586C51.217 27.8507 50.7921 30.5309 49.9687 30.4538C48.6169 29.552 50.8503 25.6738 51.5104 24.7992C57.1916 17.2728 68.5283 20.1645 70.6855 29.1911C69.3177 30.2509 68.7657 26.922 67.7075 25.5457L67.655 25.479Z" fill="black"/>
<path d="M83.4043 76.9825C84.8757 77.0099 85.8732 79.7011 86.6842 80.7398C87.049 79.9214 88.5739 77.0252 89.6786 76.9847C91.1634 76.9303 90.7625 79.394 90.7598 80.3114L90.7543 84.3503C89.1285 86.4189 88.9461 83.6957 88.9395 82.5213V80.0645C86.4728 83.644 86.5532 83.1693 84.1929 79.8829C84.1713 81.1309 84.766 85.0602 83.2069 84.9836C81.8526 84.9171 82.441 78.1534 82.5963 77.6875C82.73 77.2861 83.0428 77.1444 83.4043 76.9825Z" fill="#2081F0"/>
<path d="M69.3512 80.5003C69.914 79.6543 71.2705 77.207 72.2483 76.9593C73.9854 76.5196 73.461 79.7992 73.467 80.6655C73.4727 81.4336 73.9494 84.9308 72.7017 84.9937C71.3429 85.0621 71.7714 82.2222 71.7774 81.4325C71.7662 80.9148 71.761 80.4002 71.7774 79.8829C68.6835 83.8959 70.157 83.6375 66.9781 79.9559L66.9144 79.8829C66.9185 80.8183 67.3672 84.2738 66.4646 84.8633C65.6768 85.3773 65.1931 84.4725 65.1414 83.8198C65.0358 82.4857 64.6082 77.6771 65.8873 76.9825C67.581 76.8379 68.5353 79.2015 69.3512 80.5003Z" fill="#2081F0"/>
<path d="M61.0405 70.4378C59.1934 70.872 58.4409 69.8884 56.992 68.8846L47.2634 62.2253C43.9824 59.9673 41.9477 58.7699 41.4307 54.4802C41.2784 53.2178 40.3848 43.219 40.5989 42.2458C40.6853 41.8531 41.0495 41.7883 41.3861 41.8988C41.9059 42.3224 41.8509 44.4863 41.901 45.2107L42.3475 51.2307C42.595 54.4534 42.7259 57.7595 45.7657 59.7381L45.8478 59.7904C46.9716 60.7704 48.3268 61.5076 49.5466 62.3661C52.6728 64.5679 56.3716 67.2533 59.6255 69.2442C60.591 69.8351 63.1175 67.5393 63.8878 67.0102C65.4798 65.9165 70.1591 62.5636 71.7773 62.0317C71.9693 62.2125 72.0264 62.3123 72.036 62.583C71.5257 63.8203 69.6182 64.6316 68.5581 65.3428C66.0545 67.022 63.4563 68.6363 61.0405 70.4378Z" fill="black"/>
<path d="M113.466 81.6099C114.458 83.1157 114.565 85.1449 113.381 86.5818C111.502 88.8633 109.21 90.9002 107.127 92.9933C103.942 96.1945 100.732 99.3642 97.448 102.464L83.0728 115.841C81.0524 117.738 79.4052 119.765 76.2979 119.003C76.8157 118.623 78.0194 118.515 78.898 117.841C79.5941 117.305 80.2277 116.664 80.8659 116.061C89.4658 107.941 98.07 100.225 106.503 91.846L110.367 87.9468C113.445 84.8165 112.826 85.8238 113.466 81.6099Z" fill="#20C84F"/>
<path d="M105.63 41.6125C107.007 41.8056 105.941 45.1432 105.801 46.2678L105.154 51.6313C104.359 58.1246 103.741 58.8449 98.6763 62.3243L90.159 68.168C86.3536 70.8236 86.1318 70.5939 82.3928 68.0422L73.6603 62.0602C72.6661 61.3788 71.559 60.7742 70.687 59.9345C67.1736 56.5507 66.9857 48.6024 66.9143 43.6986C66.452 41.4132 67.9745 40.8622 68.0724 43.7828C68.1207 45.2329 68.2821 46.7086 68.3772 48.1597C68.8087 54.7365 68.6285 57.1944 74.1678 60.9747L77.8702 63.5031C80.1301 65.0467 82.5325 66.8642 84.8103 68.3104C87.3256 69.907 90.8314 66.2457 93.1028 64.7115L98.0378 61.3422C103.37 57.6595 103.2 57.3844 104.025 50.7577C104.188 49.452 104.875 42.0738 105.63 41.6125Z" fill="black"/>
<path d="M71.3591 30.7234C71.5883 30.5512 71.8475 30.3502 72.1546 30.3844C74.1895 30.6116 70.1724 33.1521 69.9413 33.3175L65.5237 36.4309C64.6733 37.0226 62.31 38.0926 62.9845 39.4825C63.7978 41.1573 68.3606 37.0981 69.1082 36.5816L80.7741 28.4211C85.5973 25.056 85.2897 23.625 90.5151 27.3332L104.993 37.4262C105.923 38.0663 107.665 39.5049 108.558 39.8915C109.601 40.3433 110.883 39.3665 110.083 38.3037C108.647 36.3954 103.091 33.8592 101.492 32.0472C101.124 31.6296 101.23 30.8364 101.898 31.0056C102.48 31.1536 109.803 36.4531 110.523 37.0858C112.521 38.8429 110.777 42.1359 108.31 41.1441C107.22 40.7058 104.575 38.5919 103.468 37.8175L90.7666 28.9543C85.9872 25.6332 87.2393 25.2775 82.4708 28.6549L68.3417 38.5995C67.3839 39.2714 65.9937 40.1171 65.1513 40.8179C62.5613 41.9483 60.8025 39.2673 62.1754 37.5804C62.7888 36.8266 63.7124 36.3087 64.4956 35.7509L69.0841 32.4557C69.8517 31.8959 70.6796 31.3934 71.3591 30.7234Z" fill="black"/>
<path d="M79.0354 45.0401C78.3081 43.8402 79.4595 41.4351 80.1929 40.4488C82.4189 37.4554 88.0714 37.0652 90.9343 39.2618C93.5265 40.9735 94.4332 44.5178 92.6556 47.1513C91.2261 49.269 88.8841 50.7986 87.6085 52.946C88.0329 53.0376 88.5297 52.976 88.9669 52.9692L92.1779 52.9361C92.6488 52.9331 93.1699 52.8779 93.6315 52.946C92.8733 53.8305 93.3061 55.58 93.2826 56.6694L84.1377 56.6666C83.0054 56.6661 79.4078 56.3716 78.5271 56.9152C77.9753 56.0834 80.5956 53.6041 81.1094 53.0012C83.0022 50.7801 84.9425 48.5906 86.9183 46.4439C88.1444 45.1114 89.3139 43.8243 87.6085 42.4197C85.1276 41.5182 84.1692 43.1924 83.8731 45.2449C82.8961 45.2498 79.7072 45.5894 79.0354 45.0401Z" fill="#2081F0"/>
<path d="M82.9663 44.6723C83.1446 41.1964 86.5513 40.6298 87.6087 42.4197C85.1278 41.5182 84.1694 43.1925 83.8733 45.2449C82.8963 45.2498 79.7075 45.5894 79.0356 45.0401L79.2322 44.8183C79.9798 44.497 82.0878 44.6605 82.9663 44.6723Z" fill="#0F1E9E"/>
<path d="M90.9345 39.2618C93.5266 40.9736 94.4334 44.5179 92.6557 47.1513C91.2262 49.2691 88.8842 50.7987 87.6086 52.946C87.0607 53.1032 86.3421 52.9846 85.7744 52.946C89.5656 48.5377 95.2359 45.6078 90.9345 39.2618Z" fill="#0F1E9E"/>
<path d="M42.502 37.2868C44.2462 35.9256 47.997 33.1855 50.0037 32.1481C52.5852 30.8134 51.2905 32.8486 52.5614 29.0434C54.4036 23.5285 61.1001 21.6826 65.9429 24.3619C66.5409 24.6927 67.0843 25.1059 67.6552 25.479L67.7077 25.5458C68.7659 26.922 69.318 30.2509 70.6857 29.1911C70.9143 29.7002 71.1448 30.2083 71.3595 30.7234C70.68 31.3934 69.852 31.8959 69.0845 32.4557L64.4959 35.7509C63.7128 36.3087 62.7891 36.8266 62.1758 37.5804C60.8029 39.2673 62.5616 41.9483 65.1516 40.8179C65.9252 47.4108 64.923 59.4962 71.7775 62.0318C70.1593 62.5636 65.48 65.9165 63.8881 67.0102C63.1178 67.5393 60.5912 69.8351 59.6257 69.2442C56.3718 67.2533 52.673 64.5679 49.5468 62.3662C48.327 61.5076 46.9718 60.7704 45.848 59.7904C45.792 59.3701 44.9317 58.2127 44.7048 57.7752C43.4114 55.2822 43.5571 52.514 43.3775 49.7818L42.7784 41.2918C42.6824 39.9588 42.6406 38.6157 42.502 37.2868Z" fill="#2081F0"/>
<path d="M84.888 94.9676C86.816 93.3215 88.9141 91.8296 90.9457 90.3137L103.569 80.853C105.822 79.194 107.67 77.3773 110.663 78.598C112.017 79.1497 112.899 80.2924 113.466 81.6099C112.826 85.8238 113.445 84.8165 110.367 87.9468L106.503 91.846C98.0701 100.225 89.4659 107.941 80.866 116.061C80.2278 116.664 79.5942 117.305 78.898 117.841C78.0195 118.515 76.8158 118.623 76.2979 119.003C74.8717 119.067 73.2734 118.545 71.8805 118.258C63.1385 116.458 52.9332 114.586 43.9434 114.572C43.4638 114.571 42.9815 114.559 42.5019 114.572C42.5079 115.908 42.7627 118.153 42.1601 119.337C39.6702 119.421 37.1463 119.332 34.6526 119.337C31.7481 119.342 26.7788 120.303 26.0766 116.308C25.8932 115.265 26.0363 114.132 26.0407 113.075L26.0408 97.2199C26.0288 91.4008 25.1461 88.7783 31.7137 88.7931L39.3218 88.7963C41.9692 88.7764 42.4084 88.2593 42.5019 91.0593C43.3386 90.8291 44.1611 90.4241 44.9612 90.0859L49.3077 88.2265C53.7814 86.307 54.4716 87.1161 58.9877 89.0509C60.9811 89.9049 62.9897 90.7233 64.9749 91.5966C68.5894 93.1867 68.0076 92.9575 71.9959 92.9515L80.0889 92.9444C82.4626 92.9581 83.2192 93.2769 84.888 94.9676ZM42.5019 92.45C42.5287 92.7902 42.5139 93.1251 42.5019 93.4653V94.0625C42.9211 94.001 43.3741 93.972 43.766 93.8065C47.5594 92.1714 52.4003 89.005 56.3261 90.5565C59.1411 91.6691 61.9036 92.9764 64.6889 94.1669C68.995 96.0072 68.6597 95.6364 73.5187 95.6372L83.8732 95.6337C82.6767 93.7655 80.4192 94.0595 78.5204 94.06L71.4045 94.0597C70.3173 94.0628 69.1421 94.2041 68.0672 94.0526C64.3326 93.5268 56.0258 87.9613 52.7782 88.2817C51.003 88.457 44.6724 91.4632 42.5019 92.45ZM28.5166 117.852L28.5131 96.8865C28.4959 90.9313 29.3823 91.3727 34.4418 91.3809L41.307 91.3855C41.3091 90.9108 41.313 90.4362 41.307 89.9612L33.1 89.9579C27.0123 89.9541 27.267 89.9877 27.2721 95.4909L27.2739 111.089C27.2692 113.294 26.5505 116.561 28.5166 117.852ZM85.3711 95.9919C85.5144 96.454 85.6498 96.9164 85.7744 97.3842C86.0815 97.2393 86.3823 97.0826 86.6842 96.9273C86.8242 96.5004 103.681 84.0984 105.035 83.1313C108.608 80.5779 107.409 80.1076 111.953 81.4324C109.841 77.0894 105.88 80.5612 103.638 82.2552L89.7902 92.6384C88.3199 93.7406 86.7692 94.8024 85.3711 95.9919Z" fill="black"/>
<path d="M28.5165 117.852L28.5129 96.8866C28.4957 90.9314 29.3822 91.3727 34.4416 91.3809L41.3068 91.3856V118.124C39.3132 118.069 29.5372 118.376 28.5165 117.852Z" fill="#20C84F"/>
<path d="M86.6838 96.9273C86.8238 96.5005 103.681 84.0985 105.034 83.1313C108.607 80.5779 107.408 80.1076 111.953 81.4324C112.676 82.7635 112.099 84.2289 111.19 85.2619C108.579 88.232 105.558 91.0014 102.72 93.7626L87.593 108.189L81.5686 113.772C76.9054 118.047 77.557 118.241 71.782 117.006C62.6621 115.055 53.272 113.513 43.9431 113.36C43.4643 113.343 42.9811 113.357 42.5015 113.36L42.5018 99.6445C42.5018 97.8589 42.32 95.1535 42.5015 93.4653V94.0625C42.9207 94.001 43.3738 93.972 43.7656 93.8066C47.559 92.1714 52.4 89.005 56.3257 90.5565C59.1407 91.6691 61.9033 92.9764 64.6885 94.167C68.9946 96.0072 68.6594 95.6364 73.5184 95.6372L83.8729 95.6337C86.6311 101.417 81.3786 101.691 77.3282 102.135L72.2715 102.71C70.6131 102.905 66.8224 103.791 65.3387 103.199C64.1455 102.723 60.3111 100.547 59.3696 100.684C57.4889 102.027 65.2619 104.485 65.887 104.58L66.0869 104.582C67.5027 104.591 68.947 104.357 70.353 104.193L77.6295 103.304C81.8522 102.781 85.79 103.071 85.7741 97.3842C86.0812 97.2393 86.3819 97.0826 86.6838 96.9273Z" fill="#20C84F"/>
</svg>
