<svg width="140" height="140" viewBox="0 0 140 140" fill="none" xmlns="http://www.w3.org/2000/svg">
<path d="M26.5902 69.1679C26.7913 69.16 29.6672 68.9713 28.7031 69.9937C28.3408 70.3779 24.9217 70.207 24.148 70.2051C24.0064 70.2119 20.724 70.4337 21.9248 69.341C22.322 68.9795 25.902 69.1707 26.5902 69.1679Z" fill="black"/>
<path d="M43.499 31.9829C44.6562 31.9392 47.3761 37.8178 47.3758 37.8629C47.3758 38.1115 47.1533 38.2629 46.9802 38.4005C46.083 38.4699 43.2554 32.9511 43.2371 32.5404C43.2259 32.29 43.3415 32.1541 43.499 31.9829Z" fill="black"/>
<path d="M96.2967 31.9829C98.1831 32.4013 93.6758 38.3496 93.3137 38.686C93.0392 38.6335 92.8431 38.5416 92.6028 38.4005C92.8967 36.9674 95.198 32.6318 96.2967 31.9829Z" fill="black"/>
<path d="M110.989 69.3823C112.337 69.3817 119.278 68.4105 118.084 70.5488C117.506 70.6469 111.6 70.5947 111.097 70.4473C110.727 70.1361 110.831 69.7979 110.989 69.3823Z" fill="black"/>
<path d="M27.7963 47.9232C28.8851 47.8784 30.1599 48.8884 31.1043 49.3659C32.1614 49.9002 35.0845 50.7054 34.4378 51.9466C33.3596 52.264 27.7514 48.8507 27.6986 48.7309C27.583 48.4695 27.7115 48.1753 27.7963 47.9232Z" fill="black"/>
<path d="M112.152 47.9232C114.775 48.8313 106.462 51.8465 105.909 51.9466C103.495 50.8206 111.295 48.3003 112.152 47.9232Z" fill="black"/>
<path d="M118.084 89.9254C120.599 90.93 116.733 94.7018 115.891 95.8497C115.117 96.9049 115.13 96.9104 114.988 98.1452C112.714 96.5612 115.249 94.0931 116.287 92.6182C116.909 91.7345 117.468 90.8119 118.084 89.9254Z" fill="#20C84F"/>
<path d="M51.4558 101.29C53.2132 104.782 50.7826 104.725 48.5776 105.243C46.1749 105.807 43.7741 107.061 41.5918 108.173C39.8284 109.072 38.0582 110.458 36.0818 109.219C36.6251 109.034 37.2075 109.089 37.7692 108.866C41.2336 107.492 43.5007 105.835 47.5046 104.658C50.2073 103.864 50.9962 104.368 51.4558 101.29Z" fill="#20C84F"/>
<path d="M121.653 104.106C125.014 107.241 120 106.034 118.388 105.938C114.775 105.68 112.084 105.572 109.046 107.773C107.024 109.238 105.989 110.77 103.408 108.995C103.7 108.832 105.103 108.708 105.722 108.437C106.948 107.9 107.993 106.904 109.172 106.254C111.956 104.722 115.611 104.872 118.609 105.748C120.419 105.392 121.133 106.375 121.653 104.106Z" fill="#20C84F"/>
<path d="M42.0875 84.3462C39.3474 78.4481 38.2288 73.4926 38.9971 66.8342C40.8283 50.9597 55.2144 39.1899 71.0011 39.646C80.2154 39.912 89.3796 44.6647 95.0332 51.9466C96.0641 52.7658 96.8305 53.9706 97.5505 55.0605C102.992 63.2951 104.498 73.5752 101.035 82.906C100.726 83.7378 100.393 84.6185 99.9439 85.3828C101.158 87.1486 101.023 89.066 103.612 89.5489C108.42 90.4452 115.528 85.0268 117.555 87.9947C117.915 88.5221 118.149 89.2825 118.084 89.9254C117.468 90.8119 116.909 91.7345 116.287 92.6182C115.249 94.0931 112.715 96.5612 114.988 98.1452C116.642 99.8479 121.263 102.088 121.653 104.106C121.133 106.375 120.419 105.392 118.609 105.748C115.611 104.872 111.956 104.722 109.172 106.255C107.993 106.904 106.948 107.9 105.722 108.437C105.103 108.708 103.7 108.832 103.408 108.995C100.723 108.505 95.7067 106.014 92.8613 104.973C89.9719 103.915 88.4423 103.006 88.8921 99.5993C78.6565 97.023 61.5519 96.4723 51.1107 99.5993C51.2455 100.159 51.3469 100.726 51.4558 101.29C50.9961 104.368 50.2073 103.864 47.5046 104.658C43.5006 105.835 41.2336 107.492 37.7691 108.866C37.2075 109.089 36.6251 109.034 36.0817 109.219C33.1464 108.721 30.7822 105.707 27.8182 105.135C25.2409 104.638 20.0009 106.681 18.72 105.099C17.2613 103.298 19.7072 101.948 20.9037 101.083C22.7849 99.7218 24.7782 98.4247 26.5901 96.9779C25.585 94.3537 19.4276 89.3791 22.7208 87.0532C25.8384 84.8515 32.2796 93.2537 39.6096 88.1481C39.3422 86.0059 40.116 85.2007 42.0875 84.3462ZM101.6 89.9254C101.092 90.128 100.842 90.8789 100.641 91.3484L97.1879 99.3461C96.1114 101.819 96.0387 103.377 93.018 103.917C93.5646 104.232 94.1848 104.367 94.777 104.57C96.7794 105.259 101.74 107.787 103.29 107.879C106.333 108.06 108.623 103.774 114.203 104.065C116.638 104.192 124.097 106.107 118.657 102.251C117.207 101.224 114.504 99.4829 113.56 98.0943C111.483 95.0365 116.486 92.006 117.02 89.1609C115.527 85.2488 107.783 93.2017 101.6 89.9254ZM43.0809 84.0284C43.3735 83.9445 43.6729 83.8381 43.9699 83.7758C41.2634 77.3183 40.3389 71.4599 41.8833 64.5663C45.6879 47.5822 63.1846 38.3775 79.6464 42.7487C81.5615 43.2573 84.2166 44.7385 85.5849 44.9953C78.9015 40.9172 70.7438 39.6419 63.1255 41.4769C44.1856 46.039 34.2699 66.85 43.0809 84.0284ZM40.4532 87.1339C41.0151 89.9445 44.1922 97.5521 45.7264 99.8077L46.6427 99.5993C45.9233 97.5655 41.7862 89.1018 42.1102 87.6261C42.4405 86.1227 49.1575 84.7563 50.5277 84.4392C65.9247 80.8757 84.4936 82.0963 99.5162 86.5255C98.2497 84.898 96.0974 84.6229 94.2104 84.1638C78.6193 80.3712 61.9035 79.9723 46.36 84.1564C44.6906 84.6059 40.9076 85.111 40.4532 87.1339ZM20.6896 104.65C23.1115 102.648 25.8396 101.067 28.2688 99.1025C30.6324 97.1912 25.119 93.5479 24.148 90.1742C24.7785 88.1924 26.5358 89.3649 28.0216 89.912C32.7417 91.6511 35.6926 93.5405 40.4532 90.5253L40.0067 89.1609C35.0752 92.2559 32.261 90.7498 27.4217 88.8281C26.4213 88.4305 25.3829 87.9329 24.307 87.792C23.3119 87.6622 22.4522 88.4469 22.8698 89.4874C23.5193 91.1058 27.7504 95.696 27.5431 97.0977C27.2882 98.8228 19.5893 102.358 19.4069 103.911C19.3183 104.666 20.1516 104.76 20.6896 104.65ZM100.286 88.4374L97.2284 95.8005C95.8257 99.2346 95.3931 102.626 91.1203 103.311C91.7539 103.509 92.3877 103.708 93.018 103.917C96.0387 103.377 96.1114 101.819 97.1879 99.3461L100.641 91.3484C100.842 90.8789 101.092 90.128 101.6 89.9254C101.04 89.5035 100.627 89.054 100.286 88.4374ZM50.1219 99.8077C48.941 100.025 47.7356 100.314 46.6427 100.822C47.0425 101.325 47.4879 101.628 48.026 101.966C48.7042 102.393 49.9207 103.609 50.3229 102.331C50.4684 101.868 50.6746 100.077 50.1219 99.8077ZM89.8155 99.8077C89.6886 100.882 89.609 102.355 91.1203 101.966C91.4228 101.987 91.7151 101.979 92.0175 101.966C92.7123 101.639 93.3311 101.311 93.925 100.822C92.6059 100.428 91.1783 99.9999 89.8155 99.8077Z" fill="black"/>
<path d="M91.2988 100.16C91.412 100.523 91.4506 100.915 91.5096 101.29C91.7377 101.496 91.8662 101.703 92.0174 101.966C91.715 101.979 91.4227 101.987 91.1203 101.966C91.1194 101.943 91.1183 101.921 91.1178 101.898L91.117 101.785C91.1082 101.236 91.2116 100.7 91.2988 100.16Z" fill="#ABF3F9"/>
<path d="M95.0332 51.9465C96.0641 52.7658 96.8305 53.9705 97.5505 55.0604C102.992 63.295 104.498 73.5752 101.035 82.9059C100.726 83.7377 100.393 84.6185 99.9439 85.3827C99.4506 84.9647 98.9543 84.6278 98.3711 84.3461C98.9382 82.6768 99.695 81.1103 100.171 79.4002C102.454 71.202 101.195 61.7074 96.6391 54.4698C96.1423 53.6804 95.2834 52.8461 95.0332 51.9465Z" fill="#2081F0"/>
<path d="M24.1481 90.1742C24.7786 88.1923 26.5359 89.3648 28.0217 89.912C32.7418 91.651 35.6927 93.5405 40.4533 90.5253C42.2104 95.1967 43.6984 100.993 48.3958 103.311C45.6303 104.189 42.9558 105.163 40.354 106.451C38.2023 107.517 36.9678 108.732 34.5924 107.511C30.3577 105.336 29.5959 103.5 24.4395 104.201C23.4367 104.337 21.6325 104.785 20.6897 104.65C23.1116 102.648 25.8397 101.067 28.2689 99.1025C30.6325 97.1911 25.1191 93.5479 24.1481 90.1742Z" fill="#20C84F"/>
<path d="M101.6 89.9253C107.783 93.2017 115.527 85.2487 117.02 89.1608C116.486 92.0059 111.483 95.0364 113.56 98.0943C114.504 99.4828 117.207 101.224 118.657 102.251C124.097 106.107 116.638 104.192 114.203 104.065C108.623 103.774 106.333 108.059 103.29 107.879C101.74 107.787 96.7795 105.259 94.7771 104.57C94.1848 104.367 93.5647 104.232 93.0181 103.917C96.0387 103.377 96.1115 101.819 97.188 99.3461L100.641 91.3483C100.842 90.8788 101.092 90.1279 101.6 89.9253ZM101.6 89.9253C101.729 90.3773 102.221 90.7651 102.599 91.0276C106.777 93.9301 112.787 89.9155 117.02 89.1608C115.527 85.2487 107.783 93.2017 101.6 89.9253Z" fill="#20C84F"/>
<path d="M46.6426 99.5993C45.9232 97.5655 41.7861 89.1018 42.1101 87.6261C42.4404 86.1227 49.1574 84.7563 50.5276 84.4392C65.9246 80.8757 84.4934 82.0963 99.5161 86.5255C99.8568 87.5298 98.7393 89.5601 98.3674 90.4734C97.2673 93.1744 95.761 97.3347 94.4537 99.8077C78.8038 95.865 65.4406 95.1221 49.4131 98.8846C48.4845 99.1025 47.5715 99.385 46.6426 99.5993Z" fill="#20C84F"/>
<path d="M77.3508 85.3828C78.295 85.744 79.065 87.7798 79.5348 88.6714C79.7243 88.4735 82.9131 84.4102 83.157 86.636C83.2374 87.371 81.5136 88.9963 81.0286 89.6192C80.7778 89.8497 80.3945 90.2112 80.258 90.5254C80.2211 91.5302 80.0133 92.5463 79.7538 93.5154C79.2624 93.5012 78.8897 93.4345 78.4377 93.2411C78.225 92.1343 78.3776 91.0421 78.4377 89.9254C77.8827 88.8317 75.4086 86.1979 77.3508 85.3828Z" fill="white"/>
<path d="M70.8556 85.3828C71.9269 85.3902 74.293 91.2032 74.5891 92.2179C73.9821 94.2214 72.876 92.4851 72.5162 91.4676C72.0243 91.4567 71.5299 91.4671 71.0377 91.4676H69.2946C69.0479 91.8261 68.924 92.2365 68.6946 92.5983C68.2645 93.2767 67.0969 93.1047 67.2268 92.1985C67.3753 91.1644 69.8267 86.1112 70.8556 85.3828Z" fill="white"/>
<path d="M70.8559 88.1481C71.1797 88.3685 71.6286 89.4291 71.776 89.8196L71.7413 89.8912L71.2497 89.9254H70.0793C70.3561 89.3414 70.6027 88.7431 70.8559 88.1481Z" fill="#20C84F"/>
<path d="M60.9691 86.0248C64.6994 85.6409 67.306 91.8302 61.3774 93.2411C60.4737 93.3496 59.5571 93.4951 58.6465 93.5153C58.3255 92.6975 57.599 87.6676 57.6682 86.6094C58.1221 86.1517 60.2538 86.0718 60.9691 86.0248Z" fill="white"/>
<path d="M60.9692 87.8495C62.9259 86.911 64.1733 90.8176 61.3774 91.4676L59.908 91.7049C59.8418 90.4231 59.573 89.1363 59.4795 87.8495C59.9747 87.8358 60.4734 87.8536 60.9692 87.8495Z" fill="#20C84F"/>
<path d="M43.9699 83.7758C41.2634 77.3183 40.3389 71.4599 41.8833 64.5663C45.6879 47.5823 63.1846 38.3775 79.6464 42.7487C81.5615 43.2573 84.2166 44.7385 85.5849 44.9953C90.6413 47.1844 96.3985 55.346 98.3115 60.1965C101.075 67.203 101.04 77.3467 97.2754 84.0285C95.8451 83.4931 94.3702 83.1428 92.8854 82.7928C76.932 79.0339 59.7281 79.2917 43.9699 83.7758Z" fill="#2081F0"/>
<path d="M59.0081 51.7763C64.2455 51.0295 68.5593 55.5584 68.749 60.5665C68.9979 67.1366 63.0238 73.9911 58.6466 78.7241C58.217 78.5039 57.8733 78.2043 57.5222 77.8794C56.7038 77.1023 54.9776 75.6843 54.4742 74.713C54.413 73.8686 58.0016 70.2513 58.5955 69.0444L58.6466 68.9386C48.014 67.4087 49.0405 52.7429 59.0081 51.7763Z" fill="black"/>
<path d="M59.4795 52.8662C63.1578 51.6718 67.4377 56.3432 67.7344 60.0817C68.273 66.876 62.579 72.5441 58.4446 77.3725C57.8901 76.7151 57.2685 76.1333 56.644 75.5443L55.5404 74.5276C57.3049 72.2991 59.281 70.238 60.9692 67.9476C48.5005 68.3201 50.2622 52.6589 59.4795 52.8662Z" fill="white"/>
<path d="M59.4794 56.6268C64.2977 56.4023 65.3425 63.0725 60.4704 64.1192C55.1484 64.4859 54.6226 57.1569 59.4794 56.6268Z" fill="black"/>
<path d="M59.4794 57.6381C62.9504 57.4273 64.0939 61.9592 60.4704 63.1047C56.7368 63.6182 55.767 58.6526 59.4794 57.6381Z" fill="#2081F0"/>
<path d="M78.6542 51.7762C84.0152 51.1448 88.4463 55.3407 89.0788 60.4969C89.9089 67.2656 89.1594 76.35 80.8117 77.3724C75.4465 78.1993 70.5763 74.3591 70.1082 68.9661C69.7383 64.7062 69.6097 58.2036 72.3824 54.9667C73.9897 53.0903 76.1971 51.9774 78.6542 51.7762Z" fill="black"/>
<path d="M78.4378 52.8661C83.0247 52.421 86.9797 55.2634 87.9119 59.8224C88.2621 61.5352 88.2526 67.827 87.902 69.5598C87.1769 73.1448 84.4028 75.7222 80.8118 76.4165C76.0564 76.839 71.7856 74.2506 71.1474 69.2661C70.9478 67.7067 70.9035 60.748 71.224 59.3387C72.0055 55.9021 74.9553 53.3083 78.4378 52.8661Z" fill="white"/>
<path d="M78.9318 57.0279C81.0293 56.8384 83.0268 57.9526 83.6163 60.0636C83.8687 60.9664 83.8845 67.3961 83.7374 68.4945C83.4725 70.4728 82.1616 71.732 80.2579 72.269C77.9914 72.6595 75.8452 71.2759 75.4126 68.9916C75.178 67.7532 75.2259 61.5975 75.4249 60.4368C75.7517 58.5337 77.0401 57.3716 78.9318 57.0279Z" fill="black"/>
<path d="M78.9318 58.0464C83.3131 57.6311 82.8439 61.9716 82.839 65.0645C82.8352 67.597 83.2065 70.2267 80.258 71.2895C75.0846 72.572 75.971 63.417 76.3725 60.7376C76.5942 59.258 77.505 58.4451 78.9318 58.0464Z" fill="#2081F0"/>
</svg>
