<svg width="14" height="15" viewBox="0 0 14 15" fill="none" xmlns="http://www.w3.org/2000/svg">
<g clip-path="url(#clip0_38_2255)">
<path fill-rule="evenodd" clip-rule="evenodd" d="M9.09694 1.9V1.2C9.09694 1.01435 9.17069 0.836301 9.30196 0.705026C9.43324 0.573751 9.61129 0.500001 9.79694 0.500001C9.88877 0.5 9.9797 0.518121 10.0645 0.553323C10.1493 0.588526 10.2264 0.640119 10.2912 0.705147C10.356 0.770174 10.4074 0.847357 10.4424 0.932273C10.4773 1.01719 10.4952 1.10817 10.4949 1.2V1.9C11.2369 1.90106 11.948 2.19653 12.4723 2.72151C12.9965 3.2465 13.2909 3.95809 13.2909 4.7V11.7C13.291 12.0677 13.2186 12.4318 13.0779 12.7716C12.9372 13.1113 12.7309 13.42 12.4709 13.68C12.2116 13.9398 11.9036 14.146 11.5646 14.2867C11.2255 14.4274 10.862 14.4999 10.4949 14.5H3.50694C3.13984 14.4999 2.77637 14.4274 2.43731 14.2867C2.09825 14.146 1.79026 13.9398 1.53094 13.68C1.00603 13.1547 0.711103 12.4426 0.710938 11.7V4.7C0.710911 4.33229 0.783313 3.96817 0.924009 3.62844C1.0647 3.28871 1.27094 2.98003 1.53094 2.72C1.79026 2.46017 2.09825 2.25401 2.43731 2.1133C2.77637 1.9726 3.13984 1.90012 3.50694 1.9V1.2C3.50694 1.01452 3.58055 0.836626 3.71161 0.705379C3.84267 0.574132 4.02046 0.500266 4.20594 0.500001C4.29785 0.499869 4.38889 0.517892 4.47382 0.553036C4.55875 0.58818 4.63591 0.639752 4.70085 0.704792C4.7658 0.769833 4.81726 0.84706 4.85229 0.932042C4.88731 1.01702 4.9052 1.10809 4.90494 1.2V1.9H9.09694ZM10.4949 3.3V4C10.4949 4.18548 10.4213 4.36338 10.2903 4.49462C10.1592 4.62587 9.98142 4.69974 9.79594 4.7C9.70402 4.70013 9.61299 4.68211 9.52805 4.64697C9.44312 4.61182 9.36597 4.56025 9.30102 4.49521C9.23607 4.43017 9.18461 4.35294 9.14959 4.26796C9.11457 4.18298 9.09667 4.09192 9.09694 4V3.3H4.90494V4C4.90494 4.18565 4.83119 4.3637 4.69991 4.49498C4.56864 4.62625 4.39059 4.7 4.20494 4.7C4.11311 4.7 4.02218 4.68188 3.93736 4.64668C3.85255 4.61147 3.77551 4.55988 3.71067 4.49485C3.64583 4.42983 3.59445 4.35264 3.55949 4.26773C3.52453 4.18281 3.50667 4.09183 3.50694 4V3.3C3.32328 3.3 3.14142 3.33624 2.97179 3.40665C2.80215 3.47705 2.64808 3.58024 2.5184 3.71029C2.38872 3.84035 2.28597 3.99471 2.21605 4.16455C2.14613 4.33438 2.11041 4.51634 2.11094 4.7V6.1H11.8939V4.7C11.8934 4.32921 11.746 3.97372 11.484 3.71134C11.222 3.44896 10.8657 3.30106 10.4949 3.3Z" fill="#B3CFEC"/>
</g>
<defs>
<clipPath id="clip0_38_2255">
<rect width="14" height="14" fill="white" transform="translate(0 0.5)"/>
</clipPath>
</defs>
</svg>
