<svg width="1460" height="903" viewBox="0 0 1460 903" fill="none" xmlns="http://www.w3.org/2000/svg">
<path opacity="0.25" d="M776.951 0L0 451.5L782.022 903L1559 451.5L776.951 0ZM1508.12 478.258L1461.82 451.527L1507.83 424.784L1554.13 451.514L1508.12 478.258ZM1410.98 478.258L1408.59 479.632L1362.59 506.362L1360.2 507.736L1314.21 534.494L1311.82 535.868L1265.8 562.626L1263.41 564L1217.4 590.758L1214.99 592.132L1168.98 618.89L1166.59 620.264L1120.57 646.981L1118.18 648.355L1072.15 675.154L1069.76 676.528L1023.75 703.327L1021.36 704.702L975.342 731.418L972.937 732.792L926.909 759.55L924.504 760.924L878.531 787.682L876.126 789.056L830.112 815.8L827.706 817.175L781.706 843.919L779.301 845.293L733.286 872.037L686.984 845.293L732.998 818.563L779.301 845.293L781.706 843.919L735.403 817.188L781.404 790.458L827.706 817.188L830.112 815.814L783.809 789.084L829.809 762.354L876.112 789.084L878.517 787.71L832.214 760.979L878.215 734.249L924.518 760.979L926.923 759.605L880.62 732.875L926.634 706.076L972.951 732.806L975.342 731.432L929.039 704.702L975.012 677.944L1021.36 704.702L1023.75 703.327L977.445 676.556L1023.46 649.812L1069.76 676.542L1072.17 675.168L1025.86 648.424L1071.88 621.68L1118.18 648.355L1120.57 646.981L1074.27 620.292L1120.28 593.548L1166.59 620.278L1168.98 618.904L1122.68 592.16L1168.69 565.416L1214.99 592.146L1217.4 590.772L1171.1 564.028L1217.11 537.284L1263.41 564.014L1265.8 562.64L1219.5 535.896L1265.52 509.152L1311.82 535.882L1314.21 534.508L1267.91 507.764L1313.92 481.02L1360.22 507.75L1362.63 506.376L1316.33 479.646L1362.34 452.902L1408.64 479.632L1411.03 478.258L1364.73 451.527L1410.69 424.756L1456.99 451.486L1459.39 450.112L1413.08 423.382L1459.1 396.638L1505.52 423.368L1459.52 450.098L1457.12 451.473L1410.98 478.258ZM684.565 843.946L638.289 817.202L684.29 790.472L730.593 817.202L732.998 815.828L686.668 789.07L732.682 762.34L778.985 789.07L781.39 787.696L735.087 760.966L781.087 734.236L827.39 760.966L829.795 759.591L783.493 732.861L829.493 706.076L875.796 732.806L878.215 731.432L831.912 704.702L877.913 677.971L924.16 704.702L926.552 703.327L880.249 676.597L926.263 649.853L972.566 676.583L974.971 675.209L928.723 648.424L974.737 621.68L1021.04 648.355L1023.43 646.981L977.129 620.292L1023.12 593.548L1069.42 620.278L1071.81 618.904L1025.53 592.16L1071.55 565.416L1117.87 592.146L1120.26 590.772L1073.97 564.028L1119.97 537.284L1166.27 564.014L1168.66 562.64L1122.36 535.896L1168.37 509.152L1214.68 535.882L1217.08 534.508L1170.78 507.764L1216.79 481.02L1263.1 507.75L1265.49 506.376L1219.18 479.632L1265.2 452.888L1311.5 479.618L1313.89 478.244L1267.59 451.514L1313.6 424.77L1359.91 451.5L1362.3 450.126L1316 423.368L1362.01 396.624L1408.31 423.354L1410.7 421.98L1364.4 395.25L1410.42 368.506L1456.72 395.25L1410.69 421.966L1408.3 423.34L1362.31 450.098L1359.91 451.473L1313.89 478.216L1311.5 479.591L1265.49 506.335L1263.1 507.709L1217.08 534.494L1214.68 535.868L1168.66 562.626L1166.27 564L1120.26 590.758L1117.87 592.132L1071.84 618.89L1069.45 620.264L1023.43 646.981L1021.04 648.355L975.012 675.154L972.607 676.528L926.607 703.327L924.16 704.702L878.16 731.446L875.755 732.82L829.74 759.564L827.335 760.938L781.335 787.682L778.93 789.056L732.915 815.8L730.51 817.175L684.51 843.919L684.565 843.946ZM635.843 815.814L589.54 789.07L635.541 762.34L681.843 789.07L684.249 787.696L637.946 760.952L683.946 734.222L730.249 760.952L732.668 759.578L686.393 732.806L732.366 706.076L778.669 732.806L781.074 731.432L734.771 704.702L780.771 677.971L827.074 704.702L829.479 703.327L783.176 676.583L829.177 649.853L875.48 676.583L877.871 675.209L831.582 648.424L877.596 621.68L923.899 648.355L926.291 646.981L879.988 620.251L926.002 593.507L972.264 620.278L974.669 618.904L928.366 592.174L974.38 565.43L1020.72 592.146L1023.12 590.772L976.813 564.028L1022.83 537.284L1069.13 564.014L1071.52 562.64L1025.22 535.896L1071.22 509.152L1117.54 535.882L1119.93 534.508L1073.64 507.764L1119.65 481.02L1165.95 507.75L1168.35 506.376L1122.07 479.632L1168.09 452.888L1214.39 479.618L1216.79 478.244L1170.45 451.5L1216.46 424.756L1262.78 451.486L1265.17 450.112L1218.87 423.368L1264.88 396.624L1311.19 423.368L1313.58 421.994L1267.27 395.263L1313.29 368.52L1359.59 395.25L1362 393.875L1315.69 367.145L1361.69 340.401L1407.94 367.104L1362 393.834L1359.59 395.209L1313.58 421.939L1311.19 423.313L1265.17 450.043L1262.78 451.417L1216.77 478.23L1214.36 479.604L1168.35 506.362L1165.95 507.736L1119.94 534.494L1117.54 535.868L1071.52 562.626L1069.13 564L1023.12 590.758L1020.72 592.132L974.71 618.89L972.305 620.264L926.291 646.981L923.899 648.355L877.885 675.154L875.494 676.528L829.479 703.327L827.074 704.702L781.074 731.446L778.669 732.82L732.654 759.564L730.249 760.938L684.249 787.682L681.843 789.056L635.843 815.8V815.814ZM587.121 787.682L540.805 760.938L586.805 734.208L633.108 760.952L635.513 759.578L589.197 732.834L635.224 706.076L681.541 732.82L683.946 731.446L637.63 704.702L683.644 677.944L729.947 704.702L732.352 703.327L686.035 676.583L732.05 649.853L778.366 676.597L780.771 675.223L734.496 648.355L780.496 621.625L826.813 648.369L829.204 646.995L782.888 620.264L828.902 593.521L875.219 620.264L877.624 618.89L831.307 592.146L877.321 565.402L923.638 592.146L926.029 590.772L879.713 564.028L925.727 537.284L972.044 564.028L974.435 562.654L928.119 535.91L974.133 509.166L1020.37 535.896L1022.76 534.522L976.442 507.778L1022.46 481.034L1068.77 507.778L1071.16 506.403L1024.85 479.659L1070.86 452.916L1117.18 479.659L1119.58 478.285L1073.27 451.541L1119.32 424.756L1165.64 451.5L1168.03 450.126L1121.71 423.382L1167.73 396.638L1214.04 423.382L1216.44 422.007L1170.17 395.236L1216.19 368.492L1262.51 395.236L1264.9 393.862L1218.55 367.104L1264.57 340.36L1310.88 367.104L1313.27 365.73L1266.96 338.986L1312.97 312.256L1359.29 338.986L1313.27 365.73L1310.88 367.104L1264.87 393.848L1262.46 395.222L1216.45 421.98L1214.06 423.354L1168.04 450.112L1165.65 451.486L1119.64 478.244L1117.23 479.618L1071.22 506.376L1068.83 507.75L1022.81 534.508L1020.41 535.882L974.394 562.64L972.003 564.014L925.988 590.772L923.597 592.146L877.583 618.89L875.177 620.264L829.163 646.981L826.772 648.355L780.771 675.154L778.352 676.528L732.352 703.327L729.947 704.702L683.946 731.432L681.541 732.806L635.541 759.55L633.135 760.924L587.135 787.655L587.121 787.682ZM538.386 759.55L492.069 732.806L538.083 706.076L584.4 732.82L586.805 731.446L540.489 704.702L586.489 677.971L632.792 704.702L635.197 703.327L588.894 676.583L634.895 649.853L681.211 676.597L683.616 675.223L637.314 648.355L683.314 621.625L729.631 648.369L732.036 646.995L685.719 620.251L731.747 593.548L778.05 620.292L780.455 618.918L734.139 592.187L780.153 565.444L826.469 592.187L828.861 590.813L782.599 564.028L828.613 537.284L874.93 564.028L877.335 562.654L831.019 535.923L877.033 509.18L923.349 535.923L925.741 534.549L879.424 507.805L925.438 481.061L971.755 507.805L974.146 506.431L927.844 479.701L973.844 452.957L1020.15 479.701L1022.55 478.326L976.236 451.582L1022.25 424.839L1068.47 451.5L1070.86 450.126L1024.55 423.382L1070.56 396.638L1116.88 423.382L1119.27 422.007L1073.01 395.236L1119.02 368.492L1165.32 395.236L1167.73 393.862L1121.41 367.118L1167.43 340.36L1213.74 367.104L1216.13 365.73L1169.82 338.986L1215.83 312.242L1262.15 338.986L1264.54 337.611L1218.28 310.84L1264.24 284.165L1310.55 310.895L1264.55 337.639L1262.15 339.013L1216.13 365.716L1213.74 367.09L1167.73 393.848L1165.34 395.222L1119.32 421.98L1116.93 423.354L1070.92 450.098L1068.53 451.473L1022.51 478.216L1020.11 479.591L974.092 506.335L971.7 507.709L925.672 534.508L923.281 535.882L877.266 562.626L874.861 564L828.847 590.772L826.456 592.146L780.441 618.89L778.036 620.264L732.036 646.981L729.631 648.355L683.644 675.154L681.239 676.528L635.211 703.327L632.792 704.702L586.791 731.432L584.386 732.806L538.386 759.536V759.55ZM1118.37 253.188L1115.98 254.562L1069.97 281.306L1067.58 282.681L1021.55 309.452L1019.14 310.826L973.129 337.57L970.738 338.945L924.724 365.688L922.319 367.063L876.304 393.807L873.913 395.181L827.954 421.98L825.562 423.354L779.548 450.098L777.143 451.473L731.129 478.216L728.737 479.591L682.723 506.335L680.332 507.709L634.304 534.453L631.912 535.827L585.912 562.557L583.507 563.932L537.492 590.662L535.087 592.036L489.032 618.89L486.627 620.264L440.626 646.981L438.221 648.355L392.275 675.154L345.959 648.424L391.973 621.68L438.29 648.424L440.695 647.05L394.378 620.319L440.379 593.548L486.695 620.292L489.1 618.918L442.784 592.187L488.784 565.444L489.334 565.127L488.798 565.444L535.115 592.187L537.506 590.813L491.203 564.083L537.204 537.339L583.52 564.083L585.925 562.709L539.609 535.978L585.609 509.234L631.926 535.978L634.331 534.604L588.015 507.86L634.029 481.116L680.345 507.86L682.737 506.486L636.42 479.742L682.434 452.998L728.751 479.742L731.142 478.368L684.826 451.624L730.84 424.88L777.157 451.624L779.562 450.249L733.122 423.368L779.136 396.624L825.452 423.368L827.844 421.994L781.527 395.25L827.541 368.506L873.858 395.25L876.249 393.875L829.933 367.131L876.057 340.36L922.374 367.104L924.765 365.73L878.448 338.986L924.463 312.242L970.779 338.986L973.171 337.611L926.854 310.867L972.827 284.165L1019.14 310.909L1021.54 309.534L975.232 282.79L1021.25 256.06L1067.55 282.79L1069.95 281.416L1023.64 254.672L1069.65 227.818L1115.97 254.549L1118.36 253.174L1072.04 226.444L1118.06 199.714L1164.37 226.444L1118.37 253.188ZM343.485 646.981L297.168 620.251L343.169 593.507L389.527 620.292L391.932 618.918L345.547 592.16L391.561 565.416L437.864 592.16L440.282 590.786L393.966 564.055L439.966 537.311L486.283 564.055L488.688 562.681L442.372 535.951L488.372 509.207L534.689 535.951L537.094 534.577L490.818 507.764L536.819 481.02L583.135 507.764L585.527 506.39L539.21 479.646L585.225 452.902L631.541 479.646L633.933 478.271L587.616 451.527L633.644 424.784L679.961 451.527L682.352 450.153L636.035 423.409L682.05 396.665L728.366 423.409L730.758 422.035L684.441 395.291L730.455 368.561L776.758 395.305L779.163 393.93L732.847 367.186L778.861 340.456L825.177 367.2L827.569 365.826L781.225 338.972L827.239 312.242L873.556 338.986L875.947 337.611L829.644 310.867L875.686 284.165L921.989 310.909L924.394 309.534L878.077 282.79L924.16 255.978L970.477 282.708L972.868 281.334L926.552 254.59L972.511 227.818L1018.83 254.549L1021.22 253.174L974.902 226.444L1020.92 199.714L1067.23 226.444L1069.64 225.07L1023.32 198.326L1069.34 171.596L1115.65 198.326L1069.64 225.07L1067.25 226.444L1021.23 253.188L1018.83 254.562L972.813 281.32L970.422 282.694L924.408 309.438L922.003 310.812L876.057 337.584L873.666 338.958L827.651 365.702L825.26 367.076L779.246 393.82L776.841 395.195L730.826 421.939L728.435 423.313L682.421 450.057L680.016 451.431L634.001 478.175L631.61 479.55L585.596 506.293L583.204 507.668L537.19 534.398L534.785 535.772L488.784 562.503L486.379 563.877L440.379 590.758L437.974 592.132L391.959 618.863L389.554 620.237L343.485 646.981ZM294.694 618.89L248.378 592.16L294.392 565.416L340.709 592.16L343.114 590.786L296.797 564.055L342.798 537.284L389.114 564.028L391.52 562.654L345.203 535.923L391.203 509.18L437.63 535.896L440.035 534.522L393.65 507.764L439.65 481.034L485.967 507.778L488.372 506.403L442.055 479.673L488.056 452.943L534.359 479.687L536.764 478.313L490.447 451.569L536.462 424.839L582.778 451.582L585.17 450.208L538.853 423.464L584.867 396.734L631.184 423.478L633.575 422.104L587.272 395.36L633.273 368.629L679.576 395.373L681.981 393.999L635.664 367.255L681.679 340.525L727.995 367.269L730.387 365.895L684.07 339.151L730.084 312.42L776.401 339.164L778.806 337.79L732.489 311.046L778.559 284.165L824.875 310.909L827.267 309.534L780.95 282.79L826.964 256.06L873.281 282.79L875.672 281.416L829.328 254.576L875.37 227.818L921.686 254.549L924.092 253.174L877.775 226.444L923.789 199.714L970.106 226.444L972.497 225.07L926.181 198.326L972.264 171.582L1018.58 198.312L1020.97 196.938L974.655 170.194L1020.66 143.464L1066.97 170.194L1020.96 196.938L1018.57 198.312L972.497 225.07L970.106 226.444L924.16 253.188L921.755 254.562L875.741 281.306L873.349 282.681L827.267 309.452L824.875 310.826L778.861 337.57L776.456 338.945L730.442 365.688L728.05 367.063L682.036 393.807L679.631 395.181L633.616 421.925L631.225 423.299L585.211 450.043L582.819 451.417L536.805 478.161L534.4 479.536L488.4 506.266L485.994 507.64L439.994 534.37L437.575 535.745L391.574 562.475L389.169 563.849L343.169 590.58L340.764 591.954L294.694 618.89ZM245.973 590.758L199.656 564.028L245.657 537.298L291.973 564.042L294.378 562.667L248.062 535.937L294.076 509.207L340.393 535.951L342.798 534.577L296.481 507.846L342.482 481.116L388.798 507.86L391.203 506.486L344.887 479.756L390.901 452.902L437.204 479.646L439.623 478.271L393.306 451.541L439.307 424.811L485.623 451.555L488.015 450.181L441.753 423.368L487.767 396.638L534.084 423.368L536.475 421.994L490.172 395.25L536.187 368.52L582.503 395.263L584.895 393.889L538.578 367.145L584.592 340.415L630.909 367.145L633.3 365.771L586.984 339.027L632.998 312.297L679.301 339.041L681.706 337.666L635.389 310.922L681.417 284.165L727.734 310.895L730.125 309.521L683.809 282.777L729.823 256.047L776.14 282.79L778.531 281.416L732.228 254.672L778.242 227.818L824.559 254.549L826.951 253.174L780.634 226.444L826.648 199.714L872.965 226.444L875.356 225.07L829.039 198.326L875.054 171.596L921.37 198.326L923.762 196.951L877.431 170.18L923.446 143.45L969.762 170.18L972.154 168.806L925.837 142.062L971.851 115.332L1018.17 142.062L972.154 168.806L969.762 170.18L923.748 196.924L921.343 198.298L875.356 225.07L872.965 226.444L826.951 253.188L824.559 254.562L778.545 281.306L776.14 282.681L730.125 309.424L727.734 310.799L681.72 337.543L679.315 338.917L633.3 365.661L630.909 367.035L584.895 393.779L582.503 395.154L536.489 421.897L534.084 423.272L488.07 450.016L485.678 451.39L439.678 478.12L437.259 479.495L391.258 506.225L388.853 507.599L342.798 534.494L340.393 535.868L294.378 562.599L291.973 563.973L245.973 590.703V590.758ZM197.237 562.626L150.934 535.896L196.935 509.166L243.251 535.91L245.657 534.535L199.34 507.805L245.341 481.075L291.657 507.805L294.062 506.431L247.759 479.701L293.76 452.97L340.077 479.714L342.482 478.34L296.165 451.61L342.165 424.88L388.482 451.61L390.887 450.236L344.571 423.505L390.571 396.775L436.888 423.519L439.279 422.145L392.963 395.401L439.004 368.506L485.321 395.236L487.712 393.862L441.396 367.118L487.41 340.388L533.727 367.131L536.132 365.757L489.856 338.972L535.871 312.242L582.187 338.972L584.579 337.598L538.262 310.854L584.276 284.165L630.593 310.895L632.984 309.521L586.668 282.777L632.682 256.047L678.998 282.777L681.404 281.402L635.087 254.658L681.101 227.818L727.418 254.549L729.809 253.174L683.493 226.444L729.507 199.714L775.824 226.444L778.215 225.07L731.912 198.326L777.926 171.596L824.229 198.326L826.634 196.951L780.318 170.207L826.332 143.477L872.649 170.207L875.04 168.833L828.723 142.089L874.683 115.318L920.999 142.048L923.404 140.674L877.088 113.93L923.088 87.1995L969.515 113.93L923.514 140.66L921.109 142.034L875.095 168.778L872.704 170.153L826.579 196.924L824.188 198.298L778.215 225.07L775.824 226.444L729.809 253.188L727.418 254.562L681.404 281.306L678.998 282.681L632.984 309.424L630.593 310.799L584.579 337.543L582.187 338.917L536.159 365.661L533.768 367.035L487.754 393.779L485.362 395.154L439.348 421.897L436.943 423.272L390.901 450.098L388.496 451.473L342.495 478.203L340.09 479.577L294.076 506.307L291.671 507.681L245.67 534.412L243.265 535.786L197.265 562.516L197.237 562.626ZM148.515 534.494L102.281 507.764L148.282 481.034L194.585 507.778L196.99 506.403L150.687 479.673L196.687 452.943L243.004 479.673L245.409 478.299L199.093 451.569L245.093 424.839L291.41 451.582L293.815 450.208L247.498 423.478L293.513 396.748L339.815 423.478L342.234 422.104L295.918 395.373L341.918 368.643L388.235 395.373L390.626 393.999L344.31 367.255L390.324 340.525L436.64 367.255L439.046 365.881L392.729 339.137L438.743 312.407L485.06 339.137L487.451 337.763L441.135 311.019L487.108 284.165L533.424 310.895L535.816 309.521L489.513 282.777L535.527 256.047L581.844 282.777L584.235 281.402L537.96 254.576L583.96 227.818L630.277 254.549L632.668 253.174L586.352 226.444L632.366 199.714L678.682 226.444L681.088 225.07L634.771 198.326L680.785 171.596L727.102 198.326L729.493 196.951L683.177 170.207L729.191 143.477L775.507 170.207L777.899 168.833L731.582 142.089L777.596 115.359L823.913 142.089L826.305 140.715L780.002 113.985L826.016 87.2545L872.332 113.985L874.724 112.61L828.407 85.8665L874.422 59.1363L920.738 85.8802L874.683 112.528L872.291 113.902L826.277 140.646L823.872 142.021L777.858 168.764L775.466 170.139L729.452 196.883L727.061 198.257L681.088 225.07L678.682 226.444L632.668 253.188L630.277 254.562L584.263 281.306L581.871 282.681L535.843 309.424L533.452 310.799L487.437 337.543L485.046 338.917L439.004 365.716L436.599 367.09L390.585 393.834L388.194 395.209L342.193 421.952L339.788 423.327L293.774 450.071L291.368 451.445L245.368 478.189L242.963 479.563L196.949 506.293L194.543 507.668L148.543 534.398L148.515 534.494ZM99.5325 452.902L145.849 479.632L148.254 478.258L101.938 451.527L147.938 424.797L194.255 451.527L196.674 450.153L150.385 423.368L196.385 396.638L242.702 423.368L245.107 421.994L198.79 395.263L244.791 368.533L291.107 395.263L293.513 393.889L247.196 367.159L293.21 340.429L339.527 367.159L341.918 365.785L295.602 339.041L341.616 312.31L387.932 339.041L390.324 337.666L344.007 310.922L389.994 284.165L436.256 310.84L438.661 309.466L392.344 282.722L438.358 255.992L484.675 282.722L487.066 281.347L440.75 254.603L486.819 227.818L533.136 254.549L535.541 253.174L489.224 226.444L535.211 199.714L581.528 226.444L583.919 225.07L537.602 198.326L583.617 171.596L629.933 198.326L632.325 196.951L586.063 170.18L632.077 143.45L678.394 170.18L680.799 168.806L634.482 142.062L680.497 115.332L726.813 142.062L729.205 140.687L682.888 113.944L728.902 87.2133L775.219 113.944L777.61 112.569L731.294 85.839L777.308 59.1088L823.625 85.839L826.03 84.4647L779.713 57.7208L825.714 30.9905L872.03 57.7345L826.03 84.4647L823.625 85.839L777.61 112.583L775.219 113.957L729.205 140.701L726.813 142.075L680.799 168.819L678.394 170.194L632.38 196.938L629.988 198.312L583.946 225.07L581.541 226.444L535.527 253.188L533.136 254.562L487.108 281.32L484.716 282.694L438.702 309.438L436.297 310.812L390.283 337.556L387.891 338.931L341.877 365.675L339.486 367.049L293.471 393.793L291.066 395.167L245.066 421.911L242.66 423.286L196.646 450.029L194.241 451.404L148.241 478.148L145.835 479.522L99.8212 506.266L53.5046 479.522L99.5325 452.902ZM50.797 424.756L97.1136 451.5L99.505 450.126L53.2022 423.395L99.2165 396.665L145.533 423.395L147.938 422.021L101.622 395.291L147.636 368.492L193.952 395.222L196.358 393.848L150.041 367.118L196.055 340.388L242.372 367.118L244.777 365.743L198.488 338.972L244.488 312.242L290.805 338.972L293.196 337.598L246.893 310.854L292.867 284.165L339.169 310.895L341.575 309.521L295.258 282.777L341.272 256.047L387.589 282.777L389.98 281.402L343.664 254.658L389.678 227.818L435.994 254.549L438.386 253.174L392.083 226.444L438.097 199.714L484.359 226.444L486.75 225.07L440.434 198.326L486.448 171.596L532.765 198.326L535.156 196.951L488.839 170.207L534.867 143.477L581.17 170.207L583.575 168.833L537.259 142.089L583.314 115.318L629.631 142.048L632.022 140.674L585.706 113.93L631.72 87.1995L678.036 113.93L680.428 112.555L634.166 85.784L680.18 59.0538L726.497 85.784L728.902 84.4097L682.586 57.6795L728.6 30.9355L774.916 57.6658L777.308 56.2915L730.991 29.5475L777.005 2.81731L823.322 29.5612L777.308 56.2915L774.916 57.6658L728.902 84.4097L726.511 85.784L680.497 112.528L678.091 113.902L632.077 140.646L629.686 142.021L583.672 168.764L581.266 170.139L535.211 196.924L532.819 198.298L486.805 225.07L484.414 226.444L438.4 253.188L435.994 254.562L389.98 281.306L387.589 282.681L341.575 309.424L339.169 310.799L293.155 337.543L290.764 338.917L244.763 365.661L242.358 367.035L196.344 393.779L193.939 395.154L147.938 421.897L145.533 423.272L99.5325 450.112L97.1274 451.486L51.1132 478.23L4.79657 451.486L50.797 424.756ZM439.746 703.987L440.942 703.286L394.626 676.556L440.626 649.812L486.943 676.556L489.348 675.182L443.031 648.451L489.032 621.708L535.348 648.424L537.753 647.05L491.451 620.306L537.451 593.576L583.768 620.319L586.173 618.945L539.856 592.215L585.857 565.471L632.173 592.215L634.579 590.841L588.262 564.11L634.276 537.366L680.593 564.11L682.984 562.736L636.668 535.992L682.682 509.248L728.998 535.896L731.39 534.522L685.018 507.764L731.033 481.02L777.335 507.764L779.74 506.39L733.424 479.646L779.438 452.902L825.755 479.646L828.146 478.271L781.83 451.527L827.954 424.756L874.27 451.5L876.662 450.126L830.359 423.382L876.373 396.638L922.676 423.382L925.081 422.007L878.765 395.263L924.779 368.52L971.095 395.263L973.487 393.889L927.17 367.145L973.184 340.401L1019.5 367.145L1021.89 365.771L975.59 339.027L1021.6 312.283L1067.92 339.027L1070.31 337.653L1024 310.909L1069.97 284.165L1116.28 310.895L1118.68 309.521L1072.36 282.777L1118.39 256.033L1164.68 282.708L1167.08 281.334L1120.77 254.59L1166.78 227.818L1213.11 254.549L1167.1 281.32L1164.69 282.694L1118.68 309.452L1116.28 310.826L1070.27 337.57L1067.88 338.945L1021.86 365.688L1019.46 367.063L973.446 393.807L971.054 395.181L925.04 421.925L922.649 423.299L876.62 450.043L874.229 451.417L828.215 478.161L825.823 479.536L779.85 506.376L777.445 507.75L731.431 534.494L729.04 535.868L683.025 562.612L680.634 563.987L634.579 590.758L632.173 592.132L586.173 618.863L583.768 620.237L537.753 646.981L535.348 648.355L489.348 675.154L486.943 676.528L439.746 704.015L443.347 704.715L489.348 677.971L535.678 704.702L538.083 703.327L491.767 676.597L537.767 649.853L584.084 676.597L586.489 675.223L540.172 648.355L586.173 621.625L632.49 648.369L634.895 646.995L588.578 620.264L634.592 593.521L680.895 620.292L683.3 618.918L636.984 592.174L682.984 565.444L729.301 592.187L731.692 590.813L685.389 564.069L731.39 537.325L777.693 564.069L780.098 562.695L733.781 535.951L779.85 509.152L826.167 535.896L828.558 534.522L782.242 507.778L828.256 481.034L874.573 507.778L876.964 506.403L830.703 479.632L876.717 452.888L923.033 479.632L925.425 478.258L879.108 451.514L925.122 424.77L971.439 451.514L973.83 450.139L927.514 423.395L973.528 396.652L1019.84 423.395L1022.24 422.021L975.919 395.277L1021.93 368.533L1068.25 395.277L1070.64 393.903L1024.33 367.159L1070.34 340.415L1116.57 367.104L1118.96 365.73L1072.65 338.986L1118.66 312.242L1164.98 338.986L1167.38 337.611L1121.07 310.867L1167.11 284.165L1213.43 310.909L1215.82 309.534L1169.5 282.79L1216.71 255.304L1215.52 256.005L1261.83 282.735L1215.82 309.452L1213.43 310.826L1167.43 337.584L1165.03 338.958L1118.99 365.716L1116.6 367.09L1070.59 393.834L1068.2 395.209L1022.18 421.952L1019.78 423.327L973.762 450.071L971.37 451.445L925.356 478.189L922.965 479.563L876.95 506.307L874.545 507.681L828.531 534.425L826.14 535.8L780.125 562.64L777.72 564.014L731.747 590.772L729.356 592.146L683.355 618.876L680.95 620.251L634.895 646.981L632.49 648.355L586.489 675.154L584.084 676.528L538.083 703.327L535.664 704.702L489.664 731.432L443.347 704.702L439.746 703.987ZM782.036 900.21L735.719 873.466L781.72 846.736L828.022 873.466L782.036 900.21ZM830.441 872.064L784.139 845.334L830.139 818.604L876.442 845.334L830.441 872.064ZM878.806 843.932L832.503 817.202L878.503 790.472L924.806 817.202L878.806 843.932ZM927.211 815.8L880.909 789.07L926.909 762.34L973.212 789.07L927.211 815.8ZM975.631 787.668L929.328 760.938L975.328 734.208L1021.74 760.938L975.631 787.668ZM1024.02 759.55L977.761 732.82L1023.78 706.076L1070.08 732.806L1024.02 759.55ZM1072.44 731.418L1026.17 704.702L1072.18 677.944L1118.5 704.702L1072.44 731.418ZM1120.89 703.327L1074.59 676.556L1120.6 649.812L1166.9 676.542L1120.89 703.327ZM1169.29 675.154L1122.99 648.424L1169.01 621.68L1215.31 648.355L1169.29 675.154ZM1217.71 646.981L1171.41 620.292L1217.43 593.548L1263.73 620.278L1217.71 646.981ZM1266.12 618.849L1219.82 592.16L1265.83 565.416L1312.13 592.146L1266.12 618.849ZM1314.48 590.758L1268.22 564.028L1314.24 537.284L1360.54 564.014L1314.48 590.758ZM1362.89 562.626L1316.64 535.896L1362.66 509.152L1408.96 535.882L1362.89 562.626ZM1411.3 534.494L1365.05 507.764L1411.06 481.02L1457.42 507.75L1411.3 534.494ZM1459.7 506.362L1413.44 479.632L1459.47 452.888L1505.77 479.618L1459.7 506.362Z" fill="url(#paint0_radial_38_316)"/>
<rect width="113.586" height="113.586" transform="matrix(0.866044 0.499967 -0.866044 0.499967 487.371 450.256)" fill="#218CFB"/>
<rect width="58.052" height="58.052" transform="matrix(0.866044 0.499967 -0.866044 0.499967 584.275 282)" fill="#218CFB"/>
<rect width="113.586" height="113.586" transform="matrix(0.866044 0.499967 -0.866044 0.499967 1020.37 310)" fill="#218CFB"/>
<path d="M661 227L654 231.059V269.662L656.893 275.538V300.843L660.393 303L661 227Z" fill="#B3C5E8"/>
<path d="M864 361V371.756L858.152 405.986L776 453L780.867 419.759V409.237L864 361Z" fill="#252935"/>
<path d="M781 406.779V419.956L776.164 453L732.527 427.455L666.222 390.181L661 351.374V340L781 406.779Z" fill="#3A4151"/>
<path d="M681 351.693L781.097 409L864 360.389V352.183L682.399 329L681 351.693Z" fill="#D4DDFF"/>
<path d="M864 325V371.518L781 420V373.331L864 325Z" fill="#D4DDFF"/>
<path d="M781 370.876V420L732.527 391.582L661 351.318V304L781 370.876Z" fill="#EDF0F9"/>
<path d="M681 316.409L781.097 373L864 324.996V316.893L682.399 294L681 316.409Z" fill="#D4DDFF"/>
<path d="M733 364.695V392L691.989 368.998L687 366.05V338L691.989 340.897L733 364.695Z" fill="#95A9DB"/>
<path d="M692 340.897V369L687 366.052V338L692 340.897Z" fill="#D4DDFF"/>
<path d="M692 368.818L714.994 354L733 364.482V392L692 368.818Z" fill="#D4DDFF"/>
<path d="M730 363.241L717.166 370.965L717.115 371L698 359.623V353L702.329 354.975L716.215 361.266L724.296 359.851L730 363.241Z" fill="#BDCAEF"/>
<path d="M717 364.291V370.966L716.95 371L698 359.829V353.326L698.606 353L702.291 355.265L717 364.291Z" fill="#EDF0F9"/>
<path d="M724 359.78L716.95 364L698 353.083L698.604 352.758L705.721 349L724 359.78Z" fill="#D4DDFF"/>
<path d="M661.067 304L781.279 373.307L864 324.569V326.448L781.313 375L661 305.896L661.067 304Z" fill="#99A6CE"/>
<path d="M864 278V324.991L781 374V326.84L864 278Z" fill="#D4DDFF"/>
<path d="M781 324.867V374L732.527 345.586L661 305.328V258L781 324.867Z" fill="#EDF0F9"/>
<path d="M670 263.054L781.359 327L864 278.399V270.195L682.973 247L670 263.054Z" fill="#B3C5E8"/>
<path d="M733 318.209V345L691.989 322.414L687 319.522V292L691.989 294.859L733 318.209Z" fill="#95A9DB"/>
<path d="M692 294.82V322L687 319.148V292L692 294.82Z" fill="#D4DDFF"/>
<path d="M692 322.421L714.994 308L733 318.218V345L692 322.421Z" fill="#D4DDFF"/>
<path d="M730 316.672L717.166 323.967L717.115 324L698 313.239V307L702.329 308.849L716.215 314.807L724.296 313.453L730 316.672Z" fill="#BDCAEF"/>
<path d="M717 317.274V323.966L716.95 324L698 312.812V306.326L698.606 306L702.291 308.248L717 317.274Z" fill="#EDF0F9"/>
<path d="M724 313.061L716.95 317L698 306.827L698.604 306.524L705.721 303L724 313.061Z" fill="#D4DDFF"/>
<path d="M661 258L781.252 326.331L864 278.291V280.143L781.286 328L661.118 259.485L661 258Z" fill="#99A6CE"/>
<path d="M864 260.215L863.899 272.04L782.467 320L689 265.215V202L805.225 226.242L864 260.215Z" fill="#4E83D1"/>
<path d="M732 229.076L689 254V210L732 229.076Z" fill="#B3C5E8"/>
<path d="M694 242.56V250.287L755.629 286L864 223.405V198H726.377L709.71 222.946L694 242.56Z" fill="#B3C5E8"/>
<path d="M661 207V257.558L674.26 265.124C676.475 266.386 678.997 267.034 681.556 266.999C684.115 266.963 686.617 266.246 688.796 264.922L689 264.805V221.862L661 207Z" fill="#EDF0F9"/>
<path d="M864 192.579V204.353L782.691 251L711.554 210.232L711.47 210.182H691.629L671 198.524V187L674.71 189.082L691.344 198.408H711.621L782.842 239.209L864 192.579Z" fill="#B3C5E8"/>
<path d="M711 198.293V210H710.915H695.962C692.59 209.997 689.276 209.142 686.342 207.516L670 198.409V187L711 198.293Z" fill="#99A6CE"/>
<path d="M783 239.092V251L864 203.891V192L783 239.092Z" fill="#99A6CE"/>
<path d="M670 187.32L684.625 195.581C688.4 197.715 692.662 198.833 696.997 198.828H710.698L782.008 240L863 192.889L761.095 134L670 187.32Z" fill="#EDF0F9"/>
<path d="M712 186.836L772.265 151L843 192.167L782.852 227L712 186.836Z" fill="#3A4151"/>
<path d="M670.505 198L661 206.889L682.441 219.249C686.574 221.623 691.247 222.872 696.003 222.872H709.413L693.739 242.444L754.709 278L771.942 257.259L782 251.333L710.939 209.886H697.042C693.109 209.87 689.247 208.832 685.827 206.872L670.505 198Z" fill="#D4DDFF"/>
<path d="M719.79 251.827L703.558 242.685C703.413 242.606 703.288 242.495 703.193 242.362C703.099 242.229 703.037 242.076 703.012 241.916C702.987 241.756 703.001 241.593 703.051 241.438C703.101 241.284 703.187 241.143 703.302 241.026L713.168 229.56C713.418 229.285 713.754 229.099 714.125 229.03C714.495 228.961 714.879 229.013 715.216 229.178L731.431 238.321C731.577 238.399 731.704 238.508 731.8 238.64C731.896 238.773 731.96 238.925 731.986 239.085C732.013 239.246 732.001 239.41 731.952 239.565C731.903 239.72 731.818 239.862 731.704 239.98L721.821 251.446C721.572 251.717 721.239 251.901 720.872 251.97C720.505 252.039 720.125 251.989 719.79 251.827Z" fill="#3A4151"/>
<path d="M751.267 270L725 255.416L736.716 242L763 256.584L751.267 270Z" fill="#78B0F4"/>
<path d="M713.975 234.957L712.099 233.987C712.068 233.965 712.043 233.937 712.026 233.905C712.009 233.873 712 233.838 712 233.803C712 233.768 712.009 233.733 712.026 233.701C712.043 233.669 712.068 233.641 712.099 233.619L713.547 232.076C713.615 232.027 713.699 232 713.786 232C713.873 232 713.957 232.027 714.025 232.076L715.901 233.046C715.932 233.068 715.957 233.096 715.974 233.128C715.991 233.16 716 233.194 716 233.23C716 233.265 715.991 233.3 715.974 233.332C715.957 233.363 715.932 233.391 715.901 233.413L714.469 234.883C714.407 234.943 714.325 234.982 714.236 234.995C714.147 235.008 714.055 234.995 713.975 234.957Z" fill="#EDF0F9"/>
<path d="M717.975 236.95L716.099 235.972C716.068 235.95 716.043 235.922 716.026 235.89C716.009 235.858 716 235.823 716 235.787C716 235.752 716.009 235.717 716.026 235.685C716.043 235.653 716.068 235.624 716.099 235.602L717.531 234.121C717.591 234.059 717.673 234.018 717.763 234.005C717.853 233.991 717.946 234.006 718.025 234.047L719.901 235.025C719.932 235.047 719.957 235.075 719.974 235.107C719.991 235.139 720 235.174 720 235.21C720 235.245 719.991 235.28 719.974 235.312C719.957 235.344 719.932 235.373 719.901 235.395L718.453 236.876C718.397 236.939 718.318 236.982 718.23 236.995C718.142 237.009 718.051 236.993 717.975 236.95Z" fill="#EDF0F9"/>
<path d="M720.981 238.959L719.11 237.988C719.076 237.968 719.049 237.941 719.029 237.909C719.01 237.877 719 237.841 719 237.805C719 237.768 719.01 237.732 719.029 237.7C719.049 237.668 719.076 237.641 719.11 237.621L720.538 236.077C720.608 236.027 720.695 236 720.784 236C720.874 236 720.96 236.027 721.03 236.077L722.901 237.048C722.932 237.07 722.957 237.098 722.974 237.129C722.991 237.161 723 237.196 723 237.231C723 237.267 722.991 237.301 722.974 237.333C722.957 237.365 722.932 237.393 722.901 237.415L721.457 238.885C721.398 238.943 721.319 238.982 721.233 238.995C721.147 239.008 721.058 238.995 720.981 238.959Z" fill="#EDF0F9"/>
<path d="M710.975 237.974L709.099 237.013C709.068 236.991 709.043 236.963 709.026 236.932C709.009 236.9 709 236.866 709 236.831C709 236.796 709.009 236.761 709.026 236.73C709.043 236.698 709.068 236.67 709.099 236.648L710.531 235.119C710.591 235.058 710.673 235.018 710.763 235.005C710.853 234.991 710.946 235.006 711.025 235.046L712.901 236.008C712.932 236.029 712.957 236.057 712.974 236.089C712.991 236.12 713 236.155 713 236.19C713 236.225 712.991 236.259 712.974 236.291C712.957 236.322 712.932 236.35 712.901 236.372L711.453 237.828C711.407 237.9 711.334 237.955 711.245 237.982C711.157 238.009 711.061 238.006 710.975 237.974Z" fill="#EDF0F9"/>
<path d="M714.97 240.897L713.099 239.605C713.068 239.576 713.043 239.538 713.026 239.496C713.009 239.454 713 239.407 713 239.36C713 239.313 713.009 239.267 713.026 239.225C713.043 239.182 713.068 239.145 713.099 239.116L714.543 237.158C714.6 237.078 714.679 237.024 714.766 237.007C714.853 236.989 714.943 237.008 715.019 237.06L716.89 238.352C716.924 238.379 716.952 238.415 716.971 238.458C716.99 238.501 717 238.548 717 238.597C717 238.645 716.99 238.693 716.971 238.736C716.952 238.778 716.924 238.815 716.89 238.842L715.462 240.897C715.392 240.964 715.305 241 715.216 241C715.126 241 715.04 240.964 714.97 240.897Z" fill="#EDF0F9"/>
<path d="M717.975 242.932L716.099 241.642C716.068 241.613 716.043 241.575 716.026 241.533C716.009 241.491 716 241.444 716 241.397C716 241.351 716.009 241.304 716.026 241.262C716.043 241.22 716.068 241.182 716.099 241.153L717.547 239.101C717.615 239.036 717.699 239 717.786 239C717.873 239 717.957 239.036 718.025 239.101L719.901 240.391C719.932 240.42 719.957 240.457 719.974 240.5C719.991 240.542 720 240.588 720 240.635C720 240.682 719.991 240.728 719.974 240.771C719.957 240.813 719.932 240.85 719.901 240.879L718.469 242.834C718.411 242.919 718.329 242.976 718.238 242.994C718.147 243.012 718.054 242.99 717.975 242.932Z" fill="#EDF0F9"/>
<path d="M707.962 241.951L706.098 240.674C706.068 240.645 706.043 240.608 706.026 240.566C706.009 240.524 706 240.478 706 240.432C706 240.385 706.009 240.34 706.026 240.298C706.043 240.256 706.068 240.219 706.098 240.19L707.537 238.158C707.596 238.078 707.678 238.024 707.767 238.006C707.857 237.989 707.948 238.008 708.027 238.062L709.89 239.339C709.924 239.365 709.952 239.401 709.971 239.443C709.99 239.485 710 239.533 710 239.581C710 239.628 709.99 239.676 709.971 239.718C709.952 239.76 709.924 239.796 709.89 239.822L708.468 241.757C708.446 241.809 708.415 241.856 708.377 241.894C708.34 241.932 708.296 241.961 708.249 241.979C708.202 241.996 708.152 242.003 708.103 241.999C708.054 241.994 708.006 241.978 707.962 241.951Z" fill="#EDF0F9"/>
<path d="M711.975 243.934L710.099 242.966C710.068 242.944 710.043 242.917 710.026 242.885C710.009 242.853 710 242.818 710 242.783C710 242.748 710.009 242.713 710.026 242.682C710.043 242.65 710.068 242.622 710.099 242.6L711.531 241.134C711.587 241.068 711.668 241.023 711.759 241.007C711.85 240.99 711.945 241.004 712.025 241.046L713.901 242.014C713.932 242.036 713.957 242.064 713.974 242.095C713.991 242.127 714 242.162 714 242.197C714 242.232 713.991 242.267 713.974 242.299C713.957 242.33 713.932 242.358 713.901 242.38L712.469 243.919C712.4 243.969 712.314 243.997 712.225 244C712.136 244.002 712.048 243.979 711.975 243.934Z" fill="#EDF0F9"/>
<path d="M715.975 245.959L714.099 244.983C714.068 244.961 714.043 244.933 714.026 244.901C714.009 244.869 714 244.834 714 244.799C714 244.763 714.009 244.728 714.026 244.696C714.043 244.664 714.068 244.636 714.099 244.614L715.531 243.135C715.587 243.069 715.668 243.023 715.759 243.007C715.85 242.99 715.945 243.005 716.025 243.047L717.901 244.022C717.932 244.045 717.957 244.073 717.974 244.105C717.991 244.137 718 244.172 718 244.207C718 244.243 717.991 244.278 717.974 244.31C717.957 244.342 717.932 244.37 717.901 244.392L716.453 245.87C716.397 245.933 716.319 245.977 716.232 245.993C716.145 246.009 716.054 245.997 715.975 245.959Z" fill="#EDF0F9"/>
<path d="M721.077 250L718 248.112L725.923 238L729 239.906L721.077 250Z" fill="#78B0F4"/>
<path d="M782 320V308.081L864 260V271.868L782 320Z" fill="#6597E0"/>
<path d="M782 308.173L689 254V265.44L782 320V308.173Z" fill="#78B0F4"/>
<path d="M863.91 274.645L827.986 295.388C826.169 296.444 824.107 297 822.006 297C819.906 297 817.844 296.444 816.027 295.388L777 272.579L779.298 271.269L825.201 245L863.91 267.339C864.547 267.714 865.074 268.249 865.441 268.891C865.807 269.534 866 270.26 866 271C866 271.74 865.807 272.467 865.441 273.109C865.074 273.751 864.547 274.286 863.91 274.662V274.645Z" fill="#99A6CE"/>
<path d="M866 270.796C865.641 271.503 865.085 272.091 864.401 272.488L828.349 293.376C826.523 294.44 824.45 295 822.34 295C820.23 295 818.157 294.44 816.331 293.376L779 271.473L825.067 245L863.913 267.512C864.499 267.849 864.995 268.324 865.358 268.896C865.722 269.468 865.942 270.12 866 270.796Z" fill="#D4DDFF"/>
<path d="M866 273.96L831.39 294C830.831 293.509 830.232 293.066 829.601 292.674L787 267.178L823.549 246L859.513 267.195C862.245 268.802 864.49 271.143 866 273.96Z" fill="white"/>
<path d="M833 272.658C832.655 272.915 832.292 273.147 831.912 273.351C828.466 275.092 824.65 276 820.778 276C816.906 276 813.089 275.092 809.643 273.351C803.469 269.852 803.436 264.157 809.643 260.625C813.094 258.899 816.909 258 820.778 258C824.647 258 828.461 258.899 831.912 260.625L833 261.318C831.624 261.59 830.298 262.069 829.068 262.738C824.986 265.081 825.002 268.894 829.068 271.255C830.289 271.939 831.618 272.414 833 272.658Z" fill="#F7D277"/>
<path d="M832.678 273C831.367 272.742 830.105 272.24 828.947 271.515C825.026 269.017 825.01 264.983 828.947 262.502C830.114 261.795 831.372 261.288 832.678 261C837.091 264.493 837.123 269.524 832.678 273Z" fill="#FC6742"/>
<path d="M843.931 271.228C840.566 272.936 836.697 273.429 833 272.621C837.673 269.342 837.64 264.636 833 261.357C836.706 260.581 840.571 261.079 843.948 262.767C848.02 265.095 848.02 268.899 843.931 271.228Z" fill="#F9435E"/>
<path d="M975.652 515.141L975.541 541.471L935.197 564.917L935.309 538.586L975.652 515.141Z" fill="#6597E0"/>
<path d="M935.308 538.588L935.196 564.918L875.158 530.257L875.282 503.939L935.308 538.588Z" fill="#6597E0"/>
<path d="M975.65 515.141L935.307 538.587L875.281 503.938L915.624 480.492L975.65 515.141Z" fill="#5383BC"/>
<path d="M976 515.543L956 540.37L975.884 541.543L976 515.543Z" fill="#78B0F4"/>
<path d="M935.111 538.543L956 540.218L935 564.543L935.111 538.543Z" fill="#78B0F4"/>
<path d="M905 499.807L890.233 508.543L883 504.292L897.767 495.543L905 499.807Z" fill="#D4DDFF"/>
<path d="M928.228 542.857L928.117 569.188L887.773 592.633L887.885 566.303L928.228 542.857Z" fill="#6597E0"/>
<path d="M887.884 566.304L887.773 592.634L827.734 557.973L827.846 531.643L887.884 566.304Z" fill="#85BFFF"/>
<path d="M928.227 542.857L887.884 566.302L827.846 531.641L868.189 508.195L928.227 542.857Z" fill="#78B0F4"/>
<path d="M928 542.543L909 568.312L927.89 569.543L928 542.543Z" fill="#78B0F4"/>
<path d="M888.11 566.543L909 568.205L888 592.543L888.11 566.543Z" fill="#78B0F4"/>
<path d="M919 542.794L904.237 551.543L897 547.292L911.763 538.543L919 542.794Z" fill="#A4D4FF"/>
<path d="M975.652 487.549L975.541 513.879L935.197 537.325L935.309 510.995L975.652 487.549Z" fill="#6597E0"/>
<path d="M935.308 510.995L935.196 537.325L875.158 502.664L875.282 476.334L935.308 510.995Z" fill="#6597E0"/>
<path d="M975.65 487.548L935.307 510.994L875.281 476.333L915.624 452.887L975.65 487.548Z" fill="#78B0F4"/>
<path d="M976 487.543L956 512.357L975.884 513.543L976 487.543Z" fill="#78B0F4"/>
<path d="M935.111 510.543L956 512.269L935 537.543L935.111 510.543Z" fill="#78B0F4"/>
<path d="M969 487.794L953.562 496.543L946 492.279L961.438 483.543L969 487.794Z" fill="#A4D4FF"/>
<path d="M837.105 530.688V531.084L878.365 555.049V554.666L837.105 530.688Z" fill="#D4DDFF"/>
<path d="M878.365 554.667V555.051L908.001 537.943V537.547L878.365 554.667Z" fill="#D4DDFF"/>
<path d="M837.105 530.688L878.365 554.666L908 537.546L866.741 513.58L837.105 530.688Z" fill="#EDF0F9"/>
<path d="M837.105 529.797V530.193L878.365 554.159V553.775L837.105 529.797Z" fill="#D4DDFF"/>
<path d="M878.365 553.776V554.16L908.001 537.052V536.656L878.365 553.776Z" fill="#D4DDFF"/>
<path d="M837.105 529.797L878.365 553.775L908 536.655L866.741 512.689L837.105 529.797Z" fill="#EDF0F9"/>
<path d="M837.105 528.857V529.254L878.365 553.219V552.836L837.105 528.857Z" fill="#D4DDFF"/>
<path d="M878.365 552.835V553.219L908.001 536.111V535.715L878.365 552.835Z" fill="#D4DDFF"/>
<path d="M837.105 528.858L878.365 552.836L908 535.716L866.741 511.75L837.105 528.858Z" fill="#EDF0F9"/>
<path d="M837.105 527.963V528.359L878.365 552.325V551.941L837.105 527.963Z" fill="#D4DDFF"/>
<path d="M878.365 551.941V552.324L908.001 535.216V534.82L878.365 551.941Z" fill="#D4DDFF"/>
<path d="M837.105 527.963L878.365 551.941L908 534.821L866.741 510.855L837.105 527.963Z" fill="#EDF0F9"/>
<path d="M837.105 527.123V527.519L878.365 551.485V551.101L837.105 527.123Z" fill="#D4DDFF"/>
<path d="M878.365 551.101V551.484L908.001 534.377V533.98L878.365 551.101Z" fill="#D4DDFF"/>
<path d="M837.105 527.123L878.365 551.102L908 533.981L866.741 510.016L837.105 527.123Z" fill="#EDF0F9"/>
<path d="M837.105 526.23V526.627L878.365 550.592V550.209L837.105 526.23Z" fill="#D4DDFF"/>
<path d="M878.365 550.21V550.594L908.001 533.486V533.09L878.365 550.21Z" fill="#D4DDFF"/>
<path d="M837.105 526.231L878.365 550.209L908 533.089L866.741 509.123L837.105 526.231Z" fill="#EDF0F9"/>
<path d="M837.105 525.291V525.687L878.365 549.653V549.269L837.105 525.291Z" fill="#D4DDFF"/>
<path d="M878.365 549.269V549.652L908.001 532.545V532.148L878.365 549.269Z" fill="#D4DDFF"/>
<path d="M837.105 525.291L878.365 549.269L908 532.149L866.741 508.184L837.105 525.291Z" fill="#EDF0F9"/>
<path d="M837.105 524.4V524.797L878.365 548.762V548.379L837.105 524.4Z" fill="#D4DDFF"/>
<path d="M878.365 548.378V548.762L908.001 531.654V531.258L878.365 548.378Z" fill="#D4DDFF"/>
<path d="M837.105 524.401L878.365 548.379L908 531.259L866.741 507.293L837.105 524.401Z" fill="#EDF0F9"/>
<path d="M837.105 523.484V523.881L878.365 547.859V547.463L837.105 523.484Z" fill="#D4DDFF"/>
<path d="M878.365 547.464V547.86L908.001 530.74V530.344L878.365 547.464Z" fill="#D4DDFF"/>
<path d="M837.105 523.485L878.365 547.463L908 530.343L866.741 506.377L837.105 523.485Z" fill="#EDF0F9"/>
<path d="M837.105 522.592V522.988L878.365 546.966V546.57L837.105 522.592Z" fill="#D4DDFF"/>
<path d="M878.365 546.571V546.967L908.001 529.847V529.463L878.365 546.571Z" fill="#D4DDFF"/>
<path d="M837.105 522.592L878.365 546.57L908 529.463L866.741 505.484L837.105 522.592Z" fill="#EDF0F9"/>
<path d="M837.105 521.65V522.047L878.365 546.025V545.629L837.105 521.65Z" fill="#D4DDFF"/>
<path d="M878.365 545.629V546.025L908.001 528.905V528.521L878.365 545.629Z" fill="#D4DDFF"/>
<path d="M837.105 521.651L878.365 545.629L908 528.521L866.741 504.543L837.105 521.651Z" fill="#EDF0F9"/>
<path d="M837.105 520.76V521.156L878.365 545.134V544.738L837.105 520.76Z" fill="#D4DDFF"/>
<path d="M878.365 544.739V545.135L908.001 528.015V527.631L878.365 544.739Z" fill="#D4DDFF"/>
<path d="M837.105 520.76L878.365 544.738L908 527.63L866.741 503.652L837.105 520.76Z" fill="#EDF0F9"/>
<path d="M837.105 519.918V520.314L878.365 544.292V543.896L837.105 519.918Z" fill="#D4DDFF"/>
<path d="M878.365 543.897V544.293L908.001 527.173V526.789L878.365 543.897Z" fill="#D4DDFF"/>
<path d="M837.105 519.918L878.365 543.896L908 526.789L866.741 502.811L837.105 519.918Z" fill="#EDF0F9"/>
<path d="M837.105 519.027V519.423L878.365 543.402V543.005L837.105 519.027Z" fill="#D4DDFF"/>
<path d="M878.365 543.006V543.402L908.001 526.282V525.898L878.365 543.006Z" fill="#D4DDFF"/>
<path d="M837.105 519.028L878.365 543.006L908 525.898L866.741 501.92L837.105 519.028Z" fill="#EDF0F9"/>
<path d="M837.105 518.084V518.48L878.365 542.458V542.062L837.105 518.084Z" fill="#D4DDFF"/>
<path d="M878.365 542.063V542.459L908.001 525.339V524.955L878.365 542.063Z" fill="#D4DDFF"/>
<path d="M837.105 518.084L878.365 542.062L908 524.955L866.741 500.977L837.105 518.084Z" fill="#EDF0F9"/>
<path d="M837.105 517.195V517.591L878.365 541.57V541.173L837.105 517.195Z" fill="#D4DDFF"/>
<path d="M878.365 541.174V541.57L908.001 524.45V524.066L878.365 541.174Z" fill="#D4DDFF"/>
<path d="M837.105 517.196L878.365 541.174L908 524.066L866.741 500.088L837.105 517.196Z" fill="#EDF0F9"/>
<path d="M837.105 516.326V516.722L878.365 540.7V540.304L837.105 516.326Z" fill="#D4DDFF"/>
<path d="M878.365 540.305V540.701L908.001 523.581V523.197L878.365 540.305Z" fill="#D4DDFF"/>
<path d="M837.105 516.327L878.365 540.305L908 523.197L866.741 499.219L837.105 516.327Z" fill="#EDF0F9"/>
<path d="M837.105 515.438V515.834L878.365 539.812V539.416L837.105 515.438Z" fill="#D4DDFF"/>
<path d="M878.365 539.416V539.813L908.001 522.692V522.309L878.365 539.416Z" fill="#D4DDFF"/>
<path d="M837.105 515.438L878.365 539.416L908 522.308L866.741 498.33L837.105 515.438Z" fill="#EDF0F9"/>
<path d="M837.105 514.496V514.892L878.365 538.87V538.474L837.105 514.496Z" fill="#D4DDFF"/>
<path d="M878.365 538.475V538.871L908.001 521.751V521.367L878.365 538.475Z" fill="#D4DDFF"/>
<path d="M837.105 514.496L878.365 538.475L908 521.367L866.741 497.389L837.105 514.496Z" fill="#EDF0F9"/>
<path d="M837.105 513.605V514.002L878.365 537.98V537.584L837.105 513.605Z" fill="#D4DDFF"/>
<path d="M878.365 537.584V537.98L908.001 520.86V520.477L878.365 537.584Z" fill="#D4DDFF"/>
<path d="M837.105 513.606L878.365 537.584L908 520.476L866.741 496.498L837.105 513.606Z" fill="#EDF0F9"/>
<path d="M886.424 475.961V476.357L927.683 500.323L927.671 499.939L886.424 475.961Z" fill="#D4DDFF"/>
<path d="M927.67 499.941L927.682 500.324L957.318 483.216V482.82L927.67 499.941Z" fill="#D4DDFF"/>
<path d="M886.424 475.961L927.671 499.939L957.318 482.819L916.059 458.854L886.424 475.961Z" fill="#EDF0F9"/>
<path d="M886.424 475.068V475.464L927.683 499.443L927.671 499.046L886.424 475.068Z" fill="#D4DDFF"/>
<path d="M927.67 499.046L927.682 499.442L957.318 482.322V481.926L927.67 499.046Z" fill="#D4DDFF"/>
<path d="M886.424 475.069L927.671 499.047L957.318 481.927L916.059 457.961L886.424 475.069Z" fill="#EDF0F9"/>
<path d="M886.424 474.127V474.523L927.683 498.501L927.671 498.105L886.424 474.127Z" fill="#D4DDFF"/>
<path d="M927.67 498.105L927.682 498.501L957.318 481.381V480.984L927.67 498.105Z" fill="#D4DDFF"/>
<path d="M886.424 474.127L927.671 498.105L957.318 480.985L916.059 457.02L886.424 474.127Z" fill="#EDF0F9"/>
<path d="M886.424 473.236V473.632L927.683 497.611L927.671 497.214L886.424 473.236Z" fill="#D4DDFF"/>
<path d="M927.67 497.215L927.682 497.611L957.318 480.491V480.107L927.67 497.215Z" fill="#D4DDFF"/>
<path d="M886.424 473.237L927.671 497.215L957.318 480.107L916.059 456.129L886.424 473.237Z" fill="#EDF0F9"/>
<path d="M886.424 472.396V472.793L927.683 496.758L927.671 496.375L886.424 472.396Z" fill="#D4DDFF"/>
<path d="M927.67 496.374L927.682 496.758L957.318 479.65V479.254L927.67 496.374Z" fill="#D4DDFF"/>
<path d="M886.424 472.397L927.671 496.375L957.318 479.255L916.059 455.289L886.424 472.397Z" fill="#EDF0F9"/>
<path d="M886.424 471.504V471.9L927.683 495.878L927.671 495.482L886.424 471.504Z" fill="#D4DDFF"/>
<path d="M927.67 495.483L927.682 495.879L957.318 478.759V478.375L927.67 495.483Z" fill="#D4DDFF"/>
<path d="M886.424 471.504L927.671 495.482L957.318 478.375L916.059 454.396L886.424 471.504Z" fill="#EDF0F9"/>
<path d="M886.424 470.564V470.961L927.683 494.939L927.671 494.543L886.424 470.564Z" fill="#D4DDFF"/>
<path d="M927.67 494.542L927.682 494.938L957.318 477.818V477.422L927.67 494.542Z" fill="#D4DDFF"/>
<path d="M886.424 470.565L927.671 494.543L957.318 477.423L916.059 453.457L886.424 470.565Z" fill="#EDF0F9"/>
<path d="M886.424 469.672V470.068L927.683 494.046L927.671 493.65L886.424 469.672Z" fill="#D4DDFF"/>
<path d="M927.67 493.651L927.682 494.047L957.318 476.927V476.543L927.67 493.651Z" fill="#D4DDFF"/>
<path d="M886.424 469.672L927.671 493.65L957.318 476.543L916.059 452.564L886.424 469.672Z" fill="#EDF0F9"/>
<path d="M886.424 468.756V469.152L927.683 493.13L927.671 492.734L886.424 468.756Z" fill="#D4DDFF"/>
<path d="M927.67 492.735L927.682 493.131L957.318 476.011V475.627L927.67 492.735Z" fill="#D4DDFF"/>
<path d="M886.424 468.756L927.671 492.734L957.318 475.627L916.059 451.648L886.424 468.756Z" fill="#EDF0F9"/>
<path d="M886.424 467.865V468.261L927.683 492.24L927.671 491.843L886.424 467.865Z" fill="#D4DDFF"/>
<path d="M927.67 491.844L927.682 492.24L957.318 475.132V474.736L927.67 491.844Z" fill="#D4DDFF"/>
<path d="M886.424 467.866L927.671 491.844L957.318 474.736L916.059 450.758L886.424 467.866Z" fill="#EDF0F9"/>
<path d="M886.424 466.924V467.32L927.683 491.298L927.671 490.902L886.424 466.924Z" fill="#D4DDFF"/>
<path d="M927.67 490.903L927.682 491.299L957.318 474.191V473.795L927.67 490.903Z" fill="#D4DDFF"/>
<path d="M886.424 466.924L927.671 490.902L957.318 473.795L916.059 449.816L886.424 466.924Z" fill="#EDF0F9"/>
<path d="M886.424 466.033V466.429L927.683 490.407L927.671 490.011L886.424 466.033Z" fill="#D4DDFF"/>
<path d="M927.67 490.012L927.682 490.408L957.318 473.3V472.904L927.67 490.012Z" fill="#D4DDFF"/>
<path d="M886.424 466.034L927.671 490.012L957.318 472.904L916.059 448.926L886.424 466.034Z" fill="#EDF0F9"/>
<path d="M886.424 465.189V465.586L927.683 489.564L927.671 489.168L886.424 465.189Z" fill="#D4DDFF"/>
<path d="M927.67 489.168L927.682 489.564L957.318 472.444V472.061L927.67 489.168Z" fill="#D4DDFF"/>
<path d="M886.424 465.19L927.671 489.168L957.318 472.06L916.059 448.082L886.424 465.19Z" fill="#EDF0F9"/>
<path d="M886.424 464.312V464.696L927.683 488.674L927.671 488.278L886.424 464.312Z" fill="#D4DDFF"/>
<path d="M927.67 488.278L927.682 488.674L957.318 471.566V471.17L927.67 488.278Z" fill="#D4DDFF"/>
<path d="M886.424 464.312L927.671 488.277L957.318 471.17L916.059 447.191L886.424 464.312Z" fill="#EDF0F9"/>
<path d="M886.424 463.373V463.757L927.683 487.735L927.671 487.339L886.424 463.373Z" fill="#D4DDFF"/>
<path d="M927.67 487.338L927.682 487.734L957.318 470.627V470.23L927.67 487.338Z" fill="#D4DDFF"/>
<path d="M886.424 463.372L927.671 487.338L957.318 470.23L916.059 446.252L886.424 463.372Z" fill="#EDF0F9"/>
<path d="M886.424 462.48V462.864L927.683 486.842L927.671 486.446L886.424 462.48Z" fill="#D4DDFF"/>
<path d="M927.67 486.446L927.682 486.842L957.318 469.734V469.338L927.67 486.446Z" fill="#D4DDFF"/>
<path d="M886.424 462.479L927.671 486.445L957.318 469.338L916.059 445.359L886.424 462.479Z" fill="#EDF0F9"/>
<path d="M886.424 461.602V461.998L927.683 485.976L927.671 485.58L886.424 461.602Z" fill="#D4DDFF"/>
<path d="M927.67 485.58L927.682 485.977L957.318 468.856V468.473L927.67 485.58Z" fill="#D4DDFF"/>
<path d="M886.424 461.602L927.671 485.58L957.318 468.472L916.059 444.494L886.424 461.602Z" fill="#EDF0F9"/>
<path d="M886.424 460.709V461.105L927.683 485.083L927.671 484.687L886.424 460.709Z" fill="#D4DDFF"/>
<path d="M927.67 484.688L927.682 485.084L957.318 467.964V467.58L927.67 484.688Z" fill="#D4DDFF"/>
<path d="M886.424 460.709L927.671 484.687L957.318 467.58L916.059 443.602L886.424 460.709Z" fill="#EDF0F9"/>
<path d="M886.424 459.768V460.164L927.683 484.142L927.671 483.746L886.424 459.768Z" fill="#D4DDFF"/>
<path d="M927.67 483.746L927.682 484.143L957.318 467.022V466.639L927.67 483.746Z" fill="#D4DDFF"/>
<path d="M886.424 459.768L927.671 483.746L957.318 466.638L916.059 442.66L886.424 459.768Z" fill="#EDF0F9"/>
<path d="M886.424 458.891V459.274L927.683 483.253L927.671 482.856L886.424 458.891Z" fill="#D4DDFF"/>
<path d="M927.67 482.856L927.682 483.252L957.318 466.144V465.748L927.67 482.856Z" fill="#D4DDFF"/>
<path d="M886.424 458.89L927.671 482.855L957.318 465.748L916.059 441.77L886.424 458.89Z" fill="#EDF0F9"/>
<path d="M886.424 458.035V458.431L927.683 482.409L927.671 482.013L886.424 458.035Z" fill="#D4DDFF"/>
<path d="M927.67 482.014L927.682 482.41L957.318 465.29V464.906L927.67 482.014Z" fill="#D4DDFF"/>
<path d="M886.424 458.036L927.671 482.014L957.318 464.906L916.059 440.928L886.424 458.036Z" fill="#EDF0F9"/>
<path d="M886.424 457.145V457.541L927.683 481.519L927.671 481.123L886.424 457.145Z" fill="#D4DDFF"/>
<path d="M927.67 481.123L927.682 481.52L957.318 464.412V464.016L927.67 481.123Z" fill="#D4DDFF"/>
<path d="M886.424 457.145L927.671 481.123L957.318 464.015L916.059 440.037L886.424 457.145Z" fill="#EDF0F9"/>
<path d="M886.424 456.203V456.599L927.683 480.577L927.671 480.181L886.424 456.203Z" fill="#D4DDFF"/>
<path d="M927.67 480.182L927.682 480.578L957.318 463.47V463.074L927.67 480.182Z" fill="#D4DDFF"/>
<path d="M886.424 456.203L927.671 480.182L957.318 463.074L916.059 439.096L886.424 456.203Z" fill="#EDF0F9"/>
<path d="M886.424 455.326V455.71L927.683 479.688L927.671 479.292L886.424 455.326Z" fill="#D4DDFF"/>
<path d="M927.67 479.291L927.682 479.688L957.318 462.58V462.184L927.67 479.291Z" fill="#D4DDFF"/>
<path d="M886.424 455.325L927.671 479.291L957.318 462.183L916.059 438.205L886.424 455.325Z" fill="#EDF0F9"/>
<path d="M886.424 454.41V454.794L927.683 478.772L927.671 478.376L886.424 454.41Z" fill="#D4DDFF"/>
<path d="M927.67 478.375L927.682 478.772L957.318 461.664V461.268L927.67 478.375Z" fill="#D4DDFF"/>
<path d="M886.424 454.409L927.671 478.375L957.318 461.267L916.059 437.289L886.424 454.409Z" fill="#EDF0F9"/>
<path d="M886.424 453.518V453.901L927.683 477.879L927.671 477.483L886.424 453.518Z" fill="#D4DDFF"/>
<path d="M927.67 477.483L927.682 477.879L957.318 460.771V460.375L927.67 477.483Z" fill="#D4DDFF"/>
<path d="M886.424 453.517L927.671 477.482L957.318 460.375L916.059 436.396L886.424 453.517Z" fill="#EDF0F9"/>
<path d="M886.424 452.578V452.962L927.683 476.94L927.671 476.544L886.424 452.578Z" fill="#D4DDFF"/>
<path d="M927.67 476.543L927.682 476.939L957.318 459.832V459.436L927.67 476.543Z" fill="#D4DDFF"/>
<path d="M886.424 452.577L927.671 476.543L957.318 459.435L916.059 435.457L886.424 452.577Z" fill="#EDF0F9"/>
<path d="M886.424 451.686V452.082L927.683 476.047L927.671 475.651L886.424 451.686Z" fill="#D4DDFF"/>
<path d="M927.67 475.651L927.682 476.047L957.318 458.939V458.543L927.67 475.651Z" fill="#D4DDFF"/>
<path d="M886.424 451.686L927.671 475.652L957.318 458.544L916.059 434.578L886.424 451.686Z" fill="#EDF0F9"/>
<path d="M886.424 450.844V451.227L927.683 475.206L927.671 474.809L886.424 450.844Z" fill="#D4DDFF"/>
<path d="M927.67 474.809L927.682 475.205L957.318 458.097V457.701L927.67 474.809Z" fill="#D4DDFF"/>
<path d="M886.424 450.843L927.671 474.809L957.318 457.701L916.059 433.723L886.424 450.843Z" fill="#EDF0F9"/>
<path d="M886.424 449.953V450.337L927.683 474.315L927.671 473.919L886.424 449.953Z" fill="#D4DDFF"/>
<path d="M927.67 473.918L927.682 474.314L957.318 457.207V456.811L927.67 473.918Z" fill="#D4DDFF"/>
<path d="M886.424 449.952L927.671 473.918L957.318 456.81L916.059 432.832L886.424 449.952Z" fill="#EDF0F9"/>
<path d="M886.424 449.014V449.41L927.683 473.376L927.671 472.979L886.424 449.014Z" fill="#D4DDFF"/>
<path d="M927.67 472.979L927.682 473.375L957.318 456.267V455.871L927.67 472.979Z" fill="#D4DDFF"/>
<path d="M886.424 449.013L927.671 472.979L957.318 455.871L916.059 431.893L886.424 449.013Z" fill="#EDF0F9"/>
<path d="M886.424 448.121V448.517L927.683 472.483L927.671 472.087L886.424 448.121Z" fill="#D4DDFF"/>
<path d="M927.67 472.086L927.682 472.482L957.318 455.375V454.979L927.67 472.086Z" fill="#D4DDFF"/>
<path d="M886.424 448.12L927.671 472.086L957.318 454.978L916.059 431L886.424 448.12Z" fill="white"/>
<path d="M1022.6 559.061V559.457L981.357 583.422V583.039L1022.6 559.061Z" fill="#D4DDFF"/>
<path d="M981.358 583.038V583.422L951.723 566.314V565.918L981.358 583.038Z" fill="#D4DDFF"/>
<path d="M1022.6 559.061L981.358 583.039L951.723 565.919L992.969 541.953L1022.6 559.061Z" fill="#EDF0F9"/>
<path d="M1022.6 558.17V558.566L981.357 582.532V582.136L1022.6 558.17Z" fill="#D4DDFF"/>
<path d="M981.358 582.135V582.531L951.723 565.423V565.027L981.358 582.135Z" fill="#D4DDFF"/>
<path d="M1022.6 558.17L981.358 582.136L951.723 565.028L992.969 541.062L1022.6 558.17Z" fill="#EDF0F9"/>
<path d="M1022.6 557.229V557.625L981.357 581.59V581.194L1022.6 557.229Z" fill="#D4DDFF"/>
<path d="M981.358 581.194V581.59L951.723 564.482V564.086L981.358 581.194Z" fill="#D4DDFF"/>
<path d="M1022.6 557.229L981.358 581.195L951.723 564.087L992.969 540.121L1022.6 557.229Z" fill="#EDF0F9"/>
<path d="M1022.6 556.338V556.734L981.357 580.7V580.304L1022.6 556.338Z" fill="#D4DDFF"/>
<path d="M981.358 580.303V580.699L951.723 563.591V563.195L981.358 580.303Z" fill="#D4DDFF"/>
<path d="M1022.6 556.338L981.358 580.304L951.723 563.196L992.969 539.23L1022.6 556.338Z" fill="#EDF0F9"/>
<path d="M1022.6 555.494V555.89L981.357 579.856V579.472L1022.6 555.494Z" fill="#D4DDFF"/>
<path d="M981.358 579.472V579.855L951.723 562.748V562.352L981.358 579.472Z" fill="#D4DDFF"/>
<path d="M1022.6 555.495L981.358 579.473L951.723 562.352L992.969 538.387L1022.6 555.495Z" fill="#EDF0F9"/>
<path d="M1022.6 554.604V555L981.357 578.965V578.569L1022.6 554.604Z" fill="#D4DDFF"/>
<path d="M981.358 578.569V578.965L951.723 561.857V561.461L981.358 578.569Z" fill="#D4DDFF"/>
<path d="M1022.6 554.604L981.358 578.57L951.723 561.462L992.969 537.496L1022.6 554.604Z" fill="#EDF0F9"/>
<path d="M1022.6 553.662V554.058L981.357 578.024V577.628L1022.6 553.662Z" fill="#D4DDFF"/>
<path d="M981.358 577.627V578.023L951.723 560.916V560.52L981.358 577.627Z" fill="#D4DDFF"/>
<path d="M1022.6 553.662L981.358 577.628L951.723 560.52L992.969 536.555L1022.6 553.662Z" fill="#EDF0F9"/>
<path d="M1022.6 552.771V553.168L981.357 577.133V576.75L1022.6 552.771Z" fill="#D4DDFF"/>
<path d="M981.358 576.749V577.133L951.723 560.025V559.629L981.358 576.749Z" fill="#D4DDFF"/>
<path d="M1022.6 552.772L981.358 576.75L951.723 559.63L992.969 535.664L1022.6 552.772Z" fill="#EDF0F9"/>
<path d="M1022.6 551.857V552.254L981.357 576.232V575.836L1022.6 551.857Z" fill="#D4DDFF"/>
<path d="M981.358 575.836V576.232L951.723 559.112V558.729L981.358 575.836Z" fill="#D4DDFF"/>
<path d="M1022.6 551.858L981.358 575.836L951.723 558.728L992.969 534.75L1022.6 551.858Z" fill="#EDF0F9"/>
<path d="M1022.6 550.965V551.361L981.357 575.339V574.943L1022.6 550.965Z" fill="#D4DDFF"/>
<path d="M981.358 574.944V575.34L951.723 558.22V557.836L981.358 574.944Z" fill="#D4DDFF"/>
<path d="M1022.6 550.965L981.358 574.943L951.723 557.836L992.969 533.857L1022.6 550.965Z" fill="#EDF0F9"/>
<path d="M1022.6 550.025V550.422L981.357 574.4V574.004L1022.6 550.025Z" fill="#D4DDFF"/>
<path d="M981.358 574.004V574.4L951.723 557.28V556.896L981.358 574.004Z" fill="#D4DDFF"/>
<path d="M1022.6 550.026L981.358 574.004L951.723 556.896L992.969 532.918L1022.6 550.026Z" fill="#EDF0F9"/>
<path d="M1022.6 549.131V549.527L981.357 573.505V573.109L1022.6 549.131Z" fill="#D4DDFF"/>
<path d="M981.358 573.11V573.506L951.723 556.386V556.002L981.358 573.11Z" fill="#D4DDFF"/>
<path d="M1022.6 549.131L981.358 573.109L951.723 556.002L992.969 532.023L1022.6 549.131Z" fill="#EDF0F9"/>
<path d="M1022.6 548.291V548.687L981.357 572.665V572.269L1022.6 548.291Z" fill="#D4DDFF"/>
<path d="M981.358 572.27V572.666L951.723 555.546V555.162L981.358 572.27Z" fill="#D4DDFF"/>
<path d="M1022.6 548.291L981.358 572.27L951.723 555.162L992.969 531.184L1022.6 548.291Z" fill="#EDF0F9"/>
<path d="M1022.6 547.4V547.797L981.357 571.775V571.379L1022.6 547.4Z" fill="#D4DDFF"/>
<path d="M981.358 571.379V571.775L951.723 554.655V554.271L981.358 571.379Z" fill="#D4DDFF"/>
<path d="M1022.6 547.401L981.358 571.379L951.723 554.271L992.969 530.293L1022.6 547.401Z" fill="#EDF0F9"/>
<path d="M1022.6 546.459V546.855L981.357 570.833V570.437L1022.6 546.459Z" fill="#D4DDFF"/>
<path d="M981.358 570.438V570.834L951.723 553.714V553.33L981.358 570.438Z" fill="#D4DDFF"/>
<path d="M1022.6 546.459L981.358 570.437L951.723 553.33L992.969 529.352L1022.6 546.459Z" fill="#EDF0F9"/>
<path d="M1022.6 545.568V545.964L981.357 569.943V569.546L1022.6 545.568Z" fill="#D4DDFF"/>
<path d="M981.358 569.547V569.943L951.723 552.823V552.439L981.358 569.547Z" fill="#D4DDFF"/>
<path d="M1022.6 545.569L981.358 569.547L951.723 552.439L992.969 528.461L1022.6 545.569Z" fill="#EDF0F9"/>
<path d="M1022.6 544.701V545.097L981.357 569.075V568.679L1022.6 544.701Z" fill="#D4DDFF"/>
<path d="M981.358 568.68V569.076L951.723 551.956V551.572L981.358 568.68Z" fill="#D4DDFF"/>
<path d="M1022.6 544.702L981.358 568.68L951.723 551.572L992.969 527.594L1022.6 544.702Z" fill="#EDF0F9"/>
<path d="M1022.6 543.811V544.207L981.357 568.185V567.789L1022.6 543.811Z" fill="#D4DDFF"/>
<path d="M981.358 567.789V568.186L951.723 551.065V550.682L981.358 567.789Z" fill="#D4DDFF"/>
<path d="M1022.6 543.811L981.358 567.789L951.723 550.681L992.969 526.703L1022.6 543.811Z" fill="#EDF0F9"/>
<path d="M1022.6 542.869V543.265L981.357 567.243V566.847L1022.6 542.869Z" fill="#D4DDFF"/>
<path d="M981.358 566.848V567.244L951.723 550.124V549.74L981.358 566.848Z" fill="#D4DDFF"/>
<path d="M1022.6 542.87L981.358 566.848L951.723 549.74L992.969 525.762L1022.6 542.87Z" fill="#EDF0F9"/>
<path d="M1022.6 541.979V542.375L981.357 566.353V565.957L1022.6 541.979Z" fill="#D4DDFF"/>
<path d="M981.358 565.957V566.354L951.723 549.233V548.85L981.358 565.957Z" fill="#D4DDFF"/>
<path d="M1022.6 541.979L981.358 565.957L951.723 548.849L992.969 524.871L1022.6 541.979Z" fill="#EDF0F9"/>
<path d="M1022.6 541.137V541.533L981.357 565.511V565.115L1022.6 541.137Z" fill="#D4DDFF"/>
<path d="M981.358 565.116V565.512L951.723 548.392V548.008L981.358 565.116Z" fill="#D4DDFF"/>
<path d="M1022.6 541.137L981.358 565.115L951.723 548.007L992.969 524.029L1022.6 541.137Z" fill="#EDF0F9"/>
<path d="M1022.6 540.244V540.64L981.357 564.618V564.222L1022.6 540.244Z" fill="#D4DDFF"/>
<path d="M981.358 564.223V564.619L951.723 547.499V547.115L981.358 564.223Z" fill="#D4DDFF"/>
<path d="M1022.6 540.245L981.358 564.223L951.723 547.115L992.969 523.137L1022.6 540.245Z" fill="#EDF0F9"/>
<path d="M1022.6 539.303V539.699L981.357 563.677V563.281L1022.6 539.303Z" fill="#D4DDFF"/>
<path d="M981.358 563.282V563.678L951.723 546.558V546.174L981.358 563.282Z" fill="#D4DDFF"/>
<path d="M1022.6 539.303L981.358 563.281L951.723 546.173L992.969 522.195L1022.6 539.303Z" fill="#EDF0F9"/>
<path d="M1022.6 538.412V538.808L981.357 562.786V562.39L1022.6 538.412Z" fill="#D4DDFF"/>
<path d="M981.358 562.391V562.787L951.723 545.667V545.283L981.358 562.391Z" fill="#D4DDFF"/>
<path d="M1022.6 538.412L981.358 562.391L951.723 545.283L992.969 521.305L1022.6 538.412Z" fill="#EDF0F9"/>
<path d="M1022.6 537.51V537.894L981.357 561.872V561.476L1022.6 537.51Z" fill="#D4DDFF"/>
<path d="M981.358 561.475V561.871L951.723 544.763V544.367L981.358 561.475Z" fill="#D4DDFF"/>
<path d="M1022.6 537.509L981.358 561.475L951.723 544.367L992.969 520.389L1022.6 537.509Z" fill="#EDF0F9"/>
<path d="M1022.6 536.619V537.003L981.357 560.981V560.585L1022.6 536.619Z" fill="#D4DDFF"/>
<path d="M981.358 560.584V560.98L951.723 543.873V543.477L981.358 560.584Z" fill="#D4DDFF"/>
<path d="M1022.6 536.618L981.358 560.584L951.723 543.476L992.969 519.498L1022.6 536.618Z" fill="#EDF0F9"/>
<path d="M1022.6 535.68V536.063L981.357 560.042V559.645L1022.6 535.68Z" fill="#D4DDFF"/>
<path d="M981.358 559.645V560.041L951.723 542.933V542.537L981.358 559.645Z" fill="#D4DDFF"/>
<path d="M1022.6 535.679L981.358 559.645L951.723 542.537L992.969 518.559L1022.6 535.679Z" fill="#EDF0F9"/>
<path d="M1022.6 534.785V535.169L981.357 559.147V558.751L1022.6 534.785Z" fill="#D4DDFF"/>
<path d="M981.358 558.75V559.147L951.723 542.039V541.643L981.358 558.75Z" fill="#D4DDFF"/>
<path d="M1022.6 534.784L981.358 558.75L951.723 541.642L992.969 517.664L1022.6 534.784Z" fill="#EDF0F9"/>
<path d="M1022.6 533.945V534.329L981.357 558.307V557.911L1022.6 533.945Z" fill="#D4DDFF"/>
<path d="M981.358 557.911V558.307L951.723 541.199V540.803L981.358 557.911Z" fill="#D4DDFF"/>
<path d="M1022.6 533.944L981.358 557.91L951.723 540.802L992.969 516.824L1022.6 533.944Z" fill="#EDF0F9"/>
<path d="M1022.6 533.053V533.436L981.357 557.415V557.018L1022.6 533.053Z" fill="#D4DDFF"/>
<path d="M981.358 557.018V557.414L951.723 540.306V539.91L981.358 557.018Z" fill="#D4DDFF"/>
<path d="M1022.6 533.052L981.358 557.018L951.723 539.91L992.969 515.932L1022.6 533.052Z" fill="#EDF0F9"/>
<path d="M1022.6 532.113V532.497L981.357 556.475V556.079L1022.6 532.113Z" fill="#D4DDFF"/>
<path d="M981.358 556.078V556.475L951.723 539.367V538.971L981.358 556.078Z" fill="#D4DDFF"/>
<path d="M1022.6 532.112L981.358 556.078L951.723 538.97L992.969 514.992L1022.6 532.112Z" fill="#EDF0F9"/>
<path d="M1022.6 531.223V531.606L981.357 555.585V555.188L1022.6 531.223Z" fill="#D4DDFF"/>
<path d="M981.358 555.188V555.584L951.723 538.476V538.08L981.358 555.188Z" fill="#D4DDFF"/>
<path d="M1022.6 531.222L981.358 555.187L951.723 538.08L992.969 514.102L1022.6 531.222Z" fill="white"/>
<path d="M913.285 591.494V591.89L954.532 615.856V615.472L913.285 591.494Z" fill="#D4DDFF"/>
<path d="M954.531 615.472V615.855L984.167 598.748V598.352L954.531 615.472Z" fill="#D4DDFF"/>
<path d="M913.285 591.495L954.532 615.473L984.167 598.352L942.92 574.387L913.285 591.495Z" fill="#EDF0F9"/>
<path d="M913.285 590.602V590.998L954.532 614.963V614.58L913.285 590.602Z" fill="#D4DDFF"/>
<path d="M954.531 614.581V614.965L984.167 597.857V597.461L954.531 614.581Z" fill="#D4DDFF"/>
<path d="M913.285 590.602L954.532 614.58L984.167 597.46L942.92 573.494L913.285 590.602Z" fill="#EDF0F9"/>
<path d="M913.285 589.662V590.058L954.532 614.024V613.64L913.285 589.662Z" fill="#D4DDFF"/>
<path d="M954.531 613.64V614.023L984.167 596.916V596.52L954.531 613.64Z" fill="#D4DDFF"/>
<path d="M913.285 589.662L954.532 613.641L984.167 596.52L942.92 572.555L913.285 589.662Z" fill="#EDF0F9"/>
<path d="M913.285 588.771V589.168L954.532 613.133V612.75L913.285 588.771Z" fill="#D4DDFF"/>
<path d="M954.531 612.749V613.133L984.167 596.025V595.629L954.531 612.749Z" fill="#D4DDFF"/>
<path d="M913.285 588.772L954.532 612.75L984.167 595.63L942.92 571.664L913.285 588.772Z" fill="#EDF0F9"/>
<path d="M913.285 587.928V588.324L954.532 612.29V611.906L913.285 587.928Z" fill="#D4DDFF"/>
<path d="M954.531 611.905V612.289L984.167 595.181V594.785L954.531 611.905Z" fill="#D4DDFF"/>
<path d="M913.285 587.928L954.532 611.906L984.167 594.786L942.92 570.82L913.285 587.928Z" fill="#EDF0F9"/>
<path d="M913.285 587.037V587.433L954.532 611.399V611.015L913.285 587.037Z" fill="#D4DDFF"/>
<path d="M954.531 611.015V611.398L984.167 594.291V593.895L954.531 611.015Z" fill="#D4DDFF"/>
<path d="M913.285 587.037L954.532 611.016L984.167 593.896L942.92 569.93L913.285 587.037Z" fill="#EDF0F9"/>
<path d="M913.285 586.098V586.494L954.532 610.46V610.076L913.285 586.098Z" fill="#D4DDFF"/>
<path d="M954.531 610.077V610.461L984.167 593.353V592.957L954.531 610.077Z" fill="#D4DDFF"/>
<path d="M913.285 586.098L954.532 610.076L984.167 592.956L942.92 568.99L913.285 586.098Z" fill="#EDF0F9"/>
<path d="M913.285 585.205V585.601L954.532 609.567V609.183L913.285 585.205Z" fill="#D4DDFF"/>
<path d="M954.531 609.183V609.566L984.167 592.459V592.062L954.531 609.183Z" fill="#D4DDFF"/>
<path d="M913.285 585.205L954.532 609.184L984.167 592.063L942.92 568.098L913.285 585.205Z" fill="#EDF0F9"/>
<path d="M913.285 584.289V584.685L954.532 608.663V608.267L913.285 584.289Z" fill="#D4DDFF"/>
<path d="M954.531 608.269V608.665L984.167 591.545V591.148L954.531 608.269Z" fill="#D4DDFF"/>
<path d="M913.285 584.289L954.532 608.268L984.167 591.147L942.92 567.182L913.285 584.289Z" fill="#EDF0F9"/>
<path d="M913.285 583.396V583.793L954.532 607.771V607.375L913.285 583.396Z" fill="#D4DDFF"/>
<path d="M954.531 607.375V607.771L984.167 590.651V590.268L954.531 607.375Z" fill="#D4DDFF"/>
<path d="M913.285 583.397L954.532 607.375L984.167 590.267L942.92 566.289L913.285 583.397Z" fill="#EDF0F9"/>
<path d="M913.285 582.455V582.851L954.532 606.829V606.433L913.285 582.455Z" fill="#D4DDFF"/>
<path d="M954.531 606.434V606.83L984.167 589.71V589.326L954.531 606.434Z" fill="#D4DDFF"/>
<path d="M913.285 582.455L954.532 606.434L984.167 589.326L942.92 565.348L913.285 582.455Z" fill="#EDF0F9"/>
<path d="M913.285 581.566V581.963L954.532 605.941V605.545L913.285 581.566Z" fill="#D4DDFF"/>
<path d="M954.531 605.545V605.941L984.167 588.821V588.438L954.531 605.545Z" fill="#D4DDFF"/>
<path d="M913.285 581.567L954.532 605.545L984.167 588.437L942.92 564.459L913.285 581.567Z" fill="#EDF0F9"/>
<defs>
<radialGradient id="paint0_radial_38_316" cx="0" cy="0" r="1" gradientUnits="userSpaceOnUse" gradientTransform="translate(785.692 420.437) scale(526.058 294.576)">
<stop stop-color="#8FB4FF"/>
<stop offset="1" stop-color="#8FB4FF" stop-opacity="0"/>
</radialGradient>
</defs>
</svg>
